<?xml version="1.0" standalone="no"?>
<!DOCTYPE svg PUBLIC "-//W3C//DTD SVG 20010904//EN"
 "http://www.w3.org/TR/2001/REC-SVG-20010904/DTD/svg10.dtd">
<svg version="1.0" xmlns="http://www.w3.org/2000/svg"
 width="256.000000pt" height="256.000000pt" viewBox="0 0 256.000000 256.000000"
 preserveAspectRatio="xMidYMid meet">
<metadata>
Created by potrace 1.11, written by Peter Selinger 2001-2013
</metadata>
<g transform="translate(0.000000,256.000000) scale(0.100000,-0.100000)"
fill="#000000" stroke="none">
<path d="M822 2528 c-7 -7 -12 -20 -12 -29 0 -10 38 -114 85 -233 47 -119 88
-229 91 -245 9 -45 -30 -225 -93 -433 -7 -24 -270 151 -279 186 -5 22 15 258
35 409 9 67 -5 97 -45 97 -39 0 -54 -51 -64 -210 -8 -144 -22 -193 -60 -205
-30 -10 -58 3 -133 58 -73 53 -128 77 -159 69 -22 -5 -42 -38 -35 -57 8 -18
147 -117 348 -245 166 -107 310 -210 392 -284 l38 -34 -47 -22 c-46 -20 -74
-28 -256 -80 -113 -32 -120 -28 -231 103 -52 62 -111 137 -133 167 -46 66 -62
79 -91 80 -23 0 -43 -26 -43 -57 0 -20 86 -137 164 -224 25 -28 46 -57 46 -63
0 -18 -40 -53 -75 -66 -16 -6 -66 -18 -109 -26 -102 -20 -156 -46 -156 -77 0
-32 18 -47 55 -47 73 0 787 154 1072 231 l148 40 23 -28 c33 -41 62 -105 62
-138 0 -60 -160 -182 -347 -264 -87 -38 -107 -33 -154 36 -46 68 -70 93 -91
93 -27 0 -22 -24 18 -103 l36 -71 -22 -18 c-38 -31 -88 -33 -175 -9 -321 87
-355 92 -363 47 -8 -40 50 -71 200 -105 196 -45 211 -92 79 -233 -104 -112
-134 -176 -97 -208 32 -26 59 -4 215 179 86 101 163 188 171 192 8 4 54 26
103 48 48 22 123 65 167 96 97 68 142 88 181 80 68 -15 76 -92 21 -210 -65
-138 -99 -167 -412 -343 -86 -48 -120 -94 -96 -127 10 -14 21 -16 47 -11 46 8
176 75 268 137 126 86 144 65 135 -151 -7 -164 0 -200 40 -200 34 0 42 20 50
120 3 47 15 125 26 173 11 49 36 188 55 310 57 348 60 355 126 291 23 -21 74
-79 115 -127 56 -66 74 -95 74 -118 0 -32 -95 -288 -142 -382 -31 -62 -30 -90
3 -107 33 -18 55 5 98 105 22 52 59 137 82 189 22 52 47 97 55 100 27 10 63
-25 130 -125 70 -104 109 -149 129 -149 17 0 45 33 45 54 0 10 -87 129 -193
264 -287 366 -433 565 -471 639 -39 77 -11 136 92 191 88 47 106 44 204 -36
90 -74 128 -121 128 -160 0 -14 -21 -70 -46 -124 -25 -54 -43 -105 -40 -113
11 -31 37 -13 83 57 58 88 89 104 128 68 37 -35 108 -181 150 -310 38 -117 62
-157 88 -147 18 7 29 60 21 95 -4 15 -22 64 -40 109 -22 52 -34 99 -34 128 0
66 19 71 170 45 148 -25 189 -15 190 48 0 14 -8 26 -22 32 -13 5 -124 27 -247
50 -123 22 -225 41 -226 42 -1 2 -58 62 -128 135 -99 103 -127 138 -127 159 0
44 73 106 166 142 71 27 81 29 105 16 15 -7 87 -71 160 -142 74 -71 143 -134
154 -140 26 -13 55 2 55 29 0 36 -20 62 -126 165 -95 92 -104 103 -104 137 0
43 20 66 82 98 86 43 129 104 96 137 -20 20 -43 14 -145 -37 -341 -172 -742
-361 -765 -361 -14 0 -28 6 -30 13 -7 17 149 405 178 443 28 38 84 50 264 61
61 3 118 11 126 18 24 17 21 65 -6 87 -27 22 -77 23 -175 4 -80 -16 -110 -9
-127 29 -10 21 -6 38 22 112 36 95 42 156 17 180 -17 17 -63 21 -78 6 -5 -5
-49 -112 -98 -238 -242 -626 -298 -758 -339 -797 -22 -20 -59 -42 -82 -49 -38
-11 -46 -11 -79 7 -22 11 -43 34 -55 58 -17 34 -18 46 -8 95 58 294 73 328
166 395 76 54 99 79 94 103 -6 30 -46 27 -95 -7 -55 -40 -78 -35 -70 17 9 55
51 106 154 189 127 102 179 175 136 191 -30 12 -121 -48 -224 -146 -55 -53
-109 -99 -119 -103 -40 -15 -71 35 -114 184 -27 94 -86 144 -124 106z"/>
</g>
</svg>
