<?xml version="1.0" standalone="no"?>
<!DOCTYPE svg PUBLIC "-//W3C//DTD SVG 20010904//EN"
 "http://www.w3.org/TR/2001/REC-SVG-20010904/DTD/svg10.dtd">
<svg version="1.0" xmlns="http://www.w3.org/2000/svg"
 width="490.000000pt" height="490.000000pt" viewBox="0 0 490.000000 490.000000"
 preserveAspectRatio="xMidYMid meet">
<metadata>
Created by potrace 1.11, written by Peter Selinger 2001-2013
</metadata>
<g transform="translate(0.000000,490.000000) scale(0.100000,-0.100000)"
fill="#000000" stroke="none">
<path d="M0 2450 l0 -2450 2450 0 2450 0 0 2450 0 2450 -2450 0 -2450 0 0
-2450z m2419 2233 c-23 -81 -24 -142 -5 -169 13 -17 13 -14 4 22 -12 42 -5 94
12 94 6 0 6 -9 1 -22 -8 -25 5 -108 18 -108 5 0 14 20 20 45 9 35 9 51 0 68
-11 20 -11 21 4 8 19 -15 22 -56 7 -98 -9 -26 -9 -27 5 -9 24 32 16 126 -20
221 -17 43 16 -3 55 -78 30 -59 40 -90 40 -126 l0 -47 68 33 c237 116 518 20
562 -193 6 -30 14 -54 18 -54 4 0 17 8 30 18 30 23 110 15 150 -15 70 -52 96
-125 81 -231 -17 -122 12 -204 92 -262 52 -38 71 -39 36 -2 -54 56 -68 145
-46 280 8 49 8 78 0 106 -8 31 -8 37 2 27 9 -9 11 -54 9 -157 -3 -164 8 -204
69 -259 19 -16 26 -21 18 -10 -67 83 -62 185 10 185 35 0 57 -24 76 -81 l15
-44 -4 72 c-6 123 -94 267 -189 308 -18 8 -25 14 -16 15 8 0 37 -16 64 -35
110 -78 172 -201 163 -324 -5 -66 -5 -66 9 -31 24 55 13 163 -24 241 -43 93
-128 181 -218 225 -69 34 -78 36 -147 32 -40 -3 -82 -8 -93 -12 -17 -7 -18 -6
-3 3 32 21 111 30 168 19 161 -30 288 -160 346 -357 3 -10 11 -7 28 12 30 33
71 53 143 72 31 8 67 18 78 21 11 3 -15 -15 -57 -40 -42 -25 -84 -56 -92 -68
-26 -37 -18 -38 18 -2 19 19 40 34 47 34 8 0 1 -10 -14 -21 -28 -21 -63 -77
-54 -86 9 -9 65 26 86 54 11 15 21 23 21 16 0 -17 -50 -73 -65 -73 -8 0 -16
-4 -20 -10 -3 -5 6 -5 24 1 33 12 69 55 108 129 14 28 27 49 29 47 2 -1 -5
-35 -15 -75 -20 -76 -63 -159 -87 -169 -22 -8 -16 -23 10 -23 44 0 169 -71
229 -131 79 -80 120 -167 119 -258 0 -38 -7 -81 -16 -101 -9 -19 -12 -24 -8
-10 4 14 7 61 7 105 0 72 -4 87 -34 143 -43 79 -135 166 -220 205 -78 37 -186
48 -241 24 -35 -14 -35 -14 30 -10 121 9 247 -52 321 -154 17 -24 29 -46 27
-49 -3 -2 -17 13 -31 33 -61 87 -171 145 -286 149 l-76 4 50 -15 c46 -13 95
-52 95 -76 0 -5 -11 -21 -25 -34 -38 -39 -104 -29 -170 24 -11 8 -6 1 10 -18
17 -18 48 -42 70 -53 36 -19 51 -20 167 -14 122 6 208 -4 208 -24 0 -4 -19 -1
-42 7 -36 13 -56 13 -118 4 -144 -21 -208 -12 -272 39 -42 34 -46 33 -21 -8
62 -101 142 -132 282 -112 73 11 82 10 127 -10 83 -36 120 -82 125 -156 2 -26
-3 -51 -14 -67 -23 -35 -23 -35 21 -42 62 -11 95 -27 145 -74 125 -116 151
-317 64 -493 l-33 -68 47 0 c38 0 68 -10 138 -47 50 -26 89 -49 86 -51 -2 -2
-26 3 -52 12 -72 25 -163 31 -188 13 -18 -14 -17 -15 21 -5 42 12 94 5 94 -12
0 -6 -9 -6 -24 0 -25 9 -106 -6 -106 -21 0 -5 12 -11 28 -15 15 -3 32 -7 37
-8 6 -2 22 1 38 5 15 4 27 4 27 -2 0 -16 -53 -22 -94 -11 -36 9 -39 9 -22 -4
32 -23 122 -14 221 22 42 15 -2 -16 -78 -56 -59 -30 -90 -40 -126 -40 l-47 0
33 -67 c91 -187 54 -412 -84 -513 -43 -32 -98 -57 -88 -40 3 6 4 10 2 10 -4 0
-69 -31 -76 -36 -2 -2 7 -17 19 -34 13 -19 17 -30 9 -28 -8 2 -21 19 -30 38
l-16 35 31 8 c67 19 105 68 105 137 1 61 -29 121 -75 156 -22 16 -60 50 -86
76 -80 80 -96 181 -47 296 19 45 19 45 1 29 -23 -21 -42 -65 -77 -176 -15 -47
-40 -104 -56 -128 l-30 -43 33 0 c39 0 90 -29 113 -63 15 -24 38 -121 48 -207
7 -55 -2 -29 -33 100 -17 72 -25 90 -56 119 -33 30 -41 33 -80 28 -25 -2 -61
-16 -84 -32 -45 -31 -105 -114 -120 -165 -25 -87 -3 -213 43 -243 61 -39 110
-28 231 51 43 29 84 52 90 52 6 -1 -1 -7 -16 -16 -15 -8 -57 -36 -93 -64 -35
-27 -82 -54 -102 -59 -48 -13 -102 0 -135 34 l-25 25 -7 -47 c-3 -27 -29 -96
-60 -158 -30 -60 -57 -128 -60 -150 l-6 -40 25 53 c36 77 61 109 111 138 67
39 107 46 206 33 76 -10 94 -10 131 5 59 22 105 72 117 127 l9 44 -4 -44 c-4
-50 -27 -86 -75 -118 -53 -37 -92 -43 -195 -31 -94 11 -95 11 -152 -18 -37
-19 -70 -45 -90 -72 -44 -58 -42 -70 5 -32 64 51 140 62 267 38 46 -8 74 -8
105 0 33 8 40 8 31 -1 -8 -8 -63 -12 -174 -12 -160 0 -163 0 -204 -28 -24 -15
-43 -32 -43 -37 0 -14 5 -13 42 10 63 38 138 17 138 -40 0 -32 -39 -70 -74
-71 -11 0 -30 -5 -41 -10 -14 -6 5 -8 60 -6 66 3 91 9 144 36 35 18 86 55 112
82 27 26 45 41 40 31 -20 -38 -99 -105 -157 -133 -70 -35 -158 -47 -217 -31
-21 6 -35 6 -32 1 4 -5 2 -9 -3 -9 -4 0 1 -28 12 -63 l21 -62 33 14 c17 9 32
22 32 31 0 9 5 21 11 27 8 8 0 13 -29 18 -22 3 -48 13 -59 21 -17 14 -16 15
12 7 17 -4 66 -8 110 -8 69 0 89 5 148 32 85 41 174 124 218 206 30 55 34 70
34 142 0 44 -4 91 -8 105 -6 20 -6 21 3 8 19 -30 27 -105 18 -163 -12 -78 -48
-144 -116 -213 -59 -61 -183 -132 -228 -132 -27 0 -32 -17 -9 -26 23 -9 62
-82 80 -149 8 -33 18 -69 21 -80 3 -11 -8 3 -24 31 -46 81 -71 113 -104 130
-43 22 -44 12 -1 -17 20 -13 40 -35 45 -49 l8 -25 -20 27 c-25 32 -90 73 -90
55 0 -21 38 -75 60 -87 12 -6 19 -14 16 -17 -11 -11 -56 28 -75 65 -11 20 -20
31 -21 24 -1 -43 42 -87 144 -144 28 -16 42 -27 31 -24 -11 3 -47 13 -80 21
-67 18 -140 57 -149 80 -9 23 -26 18 -26 -9 0 -44 -71 -169 -130 -227 -66 -67
-137 -105 -215 -117 -58 -9 -133 -1 -163 18 -13 9 -12 9 8 3 14 -4 61 -8 105
-8 72 0 87 4 142 34 129 70 230 215 241 346 4 62 -11 149 -29 160 -4 3 -3 -12
3 -32 23 -85 -11 -210 -81 -298 -32 -39 -116 -104 -136 -105 -5 0 13 15 41 34
95 64 154 172 162 295 5 81 -4 90 -19 19 -13 -54 -34 -78 -70 -78 -72 0 -77
106 -10 184 15 18 15 18 -6 7 -12 -6 -35 -33 -50 -59 -27 -46 -28 -50 -28
-204 0 -109 -4 -161 -12 -169 -9 -9 -10 -4 -1 25 9 27 8 56 0 114 -22 141 -13
199 38 264 38 47 26 49 -32 5 -28 -20 -53 -53 -72 -91 l-30 -59 12 -91 c13
-102 6 -142 -31 -196 -32 -48 -68 -71 -118 -75 -42 -4 -43 -4 -7 4 50 11 83
34 116 83 29 44 29 44 21 223 -2 63 1 88 15 115 36 70 67 100 139 135 66 33
69 36 32 30 -22 -3 -89 -30 -150 -61 -63 -31 -130 -57 -158 -60 l-47 -7 25
-25 c33 -33 47 -86 35 -133 -6 -21 -31 -65 -56 -99 -25 -35 -54 -77 -65 -94
-10 -17 -19 -26 -19 -20 0 6 23 47 52 90 79 121 90 170 51 231 -32 49 -165 69
-252 38 -152 -53 -235 -203 -158 -283 29 -30 79 -48 200 -72 91 -18 62 -21
-47 -4 -144 21 -194 55 -203 138 l-6 45 -42 -29 c-23 -16 -73 -38 -111 -50
-118 -36 -148 -49 -179 -75 l-30 -26 30 14 c17 8 55 20 87 27 105 24 192 -14
272 -119 61 -79 94 -101 161 -108 86 -9 141 26 162 104 l8 30 35 -16 c19 -9
36 -22 38 -30 2 -8 -9 -4 -28 9 -17 12 -32 21 -34 19 -2 -3 -20 -42 -34 -73
-3 -5 1 -5 7 -1 16 9 -13 -59 -38 -91 -108 -137 -349 -172 -527 -75 l-54 29 0
-48 c0 -39 -10 -68 -47 -139 -26 -50 -48 -89 -50 -88 -1 2 6 35 17 73 24 83
26 143 4 170 -15 19 -16 19 -9 -1 20 -54 17 -115 -5 -115 -6 0 -6 9 0 24 9 25
-6 106 -20 106 -14 0 -29 -81 -20 -106 6 -15 6 -24 0 -24 -22 0 -25 61 -5 115
7 20 6 20 -9 1 -22 -27 -20 -91 4 -168 28 -89 25 -92 -19 -17 -47 82 -61 120
-61 174 l0 41 -67 -33 c-131 -64 -278 -67 -400 -8 -52 26 -116 84 -140 128
-24 43 -12 38 20 -9 45 -66 112 -109 196 -128 85 -20 126 -20 212 -2 128 28
237 108 264 196 6 18 -2 13 -26 -20 -68 -89 -178 -141 -293 -139 -101 2 -119
15 -21 15 115 0 183 26 260 96 31 28 53 53 50 56 -3 3 -15 -4 -28 -16 -33 -32
-81 -46 -106 -33 -75 41 -23 129 89 152 33 6 32 7 -14 8 -67 1 -127 -29 -179
-91 -86 -103 -106 -124 -134 -138 -15 -8 -31 -19 -35 -25 -4 -5 -11 -6 -15 -1
-4 5 -3 11 4 13 37 13 85 58 138 128 70 91 138 135 209 135 53 0 31 16 -35 25
-92 13 -166 -24 -240 -118 -52 -68 -90 -94 -156 -107 -66 -14 -112 -1 -147 41
-16 19 -26 24 -30 16 -3 -8 -5 -7 -4 3 1 18 -12 70 -18 70 -3 0 -16 -8 -31
-17 -16 -11 -41 -16 -67 -14 -74 5 -120 42 -156 124 -20 45 -21 55 -11 132 18
129 -6 200 -88 262 -54 42 -70 42 -35 1 55 -67 65 -129 43 -278 -9 -62 -9 -82
4 -117 8 -24 11 -43 7 -43 -20 0 -31 86 -24 199 5 84 3 129 -6 156 -13 40 -77
118 -90 110 -4 -3 -13 2 -20 10 -18 22 -28 10 -36 -41 -7 -51 7 -114 32 -139
51 -50 87 52 44 123 -22 36 -25 46 -10 37 17 -11 50 -83 50 -109 0 -64 -44
-99 -88 -70 -23 15 -31 31 -51 94 -9 31 -10 25 -7 -41 4 -116 53 -210 148
-286 51 -42 40 -43 -16 -3 -101 73 -151 173 -151 302 0 85 0 86 -13 50 -22
-60 -11 -167 25 -243 39 -85 126 -177 205 -220 56 -30 71 -34 143 -34 44 0 91
3 105 7 14 4 9 0 -10 -9 -22 -10 -60 -16 -101 -16 -137 0 -283 105 -354 254
-19 41 -35 84 -35 96 0 29 -9 29 -39 -3 -31 -32 -82 -58 -146 -73 -27 -7 -59
-14 -70 -17 -11 -3 8 11 42 31 70 40 118 84 126 114 3 12 1 19 -4 15 -5 -3 -9
-11 -9 -19 0 -15 -56 -65 -73 -65 -7 0 1 10 16 21 28 21 63 77 54 86 -9 8 -65
-26 -81 -49 -9 -12 -18 -19 -22 -15 -4 3 9 22 29 42 37 37 37 46 -1 19 -12 -8
-43 -50 -68 -92 -25 -42 -43 -68 -40 -57 3 11 10 43 17 70 16 68 58 144 88
160 19 10 22 15 11 18 -173 48 -278 130 -342 265 -36 74 -42 173 -14 232 9 19
13 26 10 15 -4 -11 -9 -53 -12 -93 -4 -69 -2 -78 32 -147 44 -90 132 -175 225
-218 78 -37 186 -48 241 -24 l35 15 -61 -5 c-83 -7 -182 23 -247 75 -52 41
-117 126 -117 151 0 9 7 2 16 -16 52 -104 179 -183 306 -189 l73 -4 -44 15
c-61 20 -83 42 -79 79 6 62 86 72 162 21 l36 -24 -16 24 c-9 13 -40 36 -69 50
-50 25 -59 26 -198 23 -104 -2 -149 0 -158 9 -10 10 -4 10 27 2 28 -8 57 -8
106 0 135 22 215 11 273 -41 44 -38 45 -23 2 34 -61 80 -142 107 -261 88 -99
-16 -178 12 -229 82 -30 40 -38 120 -15 150 10 13 18 26 18 30 0 4 -24 12 -54
18 -213 44 -309 325 -193 563 l33 67 -45 1 c-25 0 -64 8 -86 17 -47 20 -137
73 -133 78 2 2 23 -4 48 -12 68 -23 161 -29 185 -11 18 14 17 15 -21 5 -41
-11 -94 -5 -94 11 0 5 12 6 27 2 30 -8 103 6 103 20 0 11 -64 22 -100 17 -17
-3 -30 -1 -30 4 0 15 54 21 94 10 36 -9 39 -9 22 4 -27 19 -88 18 -170 -5 -81
-23 -76 -15 27 39 59 30 90 40 126 40 l47 0 -33 68 c-80 163 -62 354 43 471
46 52 113 91 155 91 46 0 54 14 28 51 -12 18 -18 29 -11 25 8 -5 10 1 6 23
-14 67 32 134 117 170 48 21 57 22 139 11 129 -17 199 8 260 91 42 58 38 65
-15 25 -57 -44 -111 -53 -240 -37 -71 8 -110 9 -135 1 -51 -15 -61 -11 -15 6
32 12 68 13 170 8 120 -6 134 -5 171 14 42 21 90 65 83 74 -2 3 4 15 14 26 22
24 14 31 -50 38 -61 7 -123 -13 -134 -43 -19 -52 58 -70 132 -32 23 11 38 16
34 10 -11 -19 -83 -51 -112 -51 -42 0 -73 26 -73 60 0 36 34 64 92 76 l43 8
-53 4 c-108 7 -238 -55 -308 -146 -19 -25 -34 -41 -34 -37 0 17 76 106 110
130 76 52 130 70 218 70 80 0 82 1 50 14 -53 22 -163 10 -239 -26 -85 -39
-177 -126 -220 -205 -30 -56 -34 -71 -34 -143 0 -44 4 -91 8 -105 6 -20 6 -21
-3 -8 -5 9 -14 39 -20 66 -19 105 36 241 135 329 56 49 175 113 211 113 31 0
30 11 -2 41 -14 13 -32 36 -40 50 -17 35 -56 179 -41 156 7 -10 29 -45 49 -78
41 -64 98 -103 120 -81 16 16 -7 67 -46 98 -20 16 -24 22 -11 18 31 -11 45
-24 65 -63 11 -20 19 -29 20 -21 0 35 -42 81 -117 125 -43 25 -69 44 -58 41
11 -3 47 -13 78 -21 71 -19 105 -35 136 -69 30 -32 41 -33 41 -3 0 33 52 135
98 194 101 127 281 190 393 139 19 -9 25 -13 14 -10 -11 4 -53 9 -93 12 -69 4
-78 2 -147 -32 -136 -67 -242 -214 -253 -351 -4 -62 11 -149 29 -160 4 -3 3
12 -3 32 -22 78 6 195 67 283 24 34 113 110 130 110 4 0 -11 -13 -33 -30 -92
-66 -157 -201 -150 -311 l4 -54 8 43 c12 58 40 92 76 92 33 0 60 -31 60 -70 0
-29 -33 -104 -50 -115 -6 -4 -2 11 9 34 25 48 27 103 5 125 -20 21 -30 20 -53
-3 -25 -25 -35 -78 -27 -136 8 -50 18 -62 36 -40 7 8 16 13 20 10 13 -8 62 48
83 94 18 40 19 58 13 170 -6 102 -4 134 9 166 15 39 15 39 8 5 -10 -44 -9
-107 1 -192 12 -94 1 -150 -40 -203 -40 -53 -33 -57 25 -15 82 60 108 133 93
256 -7 54 -8 94 -1 117 22 81 94 148 158 146 l36 -1 -44 -9 c-55 -11 -104 -56
-127 -115 -14 -37 -15 -56 -6 -132 6 -49 7 -104 3 -123 -20 -89 -73 -149 -166
-190 -25 -11 -45 -22 -45 -25 0 -15 76 12 176 62 61 31 132 58 160 62 45 7 47
9 27 20 -12 6 -29 31 -38 55 -21 56 -9 107 42 174 20 26 49 68 65 92 15 25 28
40 28 34 0 -6 -23 -46 -51 -89 -80 -122 -91 -171 -52 -231 35 -54 201 -71 283
-28 60 31 118 85 139 129 30 60 27 98 -9 139 -30 35 -73 51 -202 77 -32 6 -60
15 -63 20 -3 5 6 5 22 0 15 -5 61 -14 101 -19 39 -5 89 -18 109 -28 47 -22 83
-75 83 -119 l0 -34 48 31 c26 16 85 41 132 56 95 28 150 54 170 78 10 12 2 11
-36 -6 -31 -13 -72 -22 -114 -23 -94 -2 -148 28 -224 123 -67 82 -114 110
-186 111 -27 0 -58 -8 -76 -19 -30 -19 -64 -74 -64 -106 0 -9 -3 -15 -7 -13
-49 24 -63 33 -68 46 -3 9 8 4 29 -12 l34 -26 7 32 c10 44 63 97 107 107 45
10 121 -3 158 -26 15 -10 50 -46 78 -79 62 -76 95 -99 155 -115 47 -11 120 -6
147 11 11 7 5 10 -22 10 -77 0 -149 46 -213 136 -25 34 -62 76 -82 93 -21 17
-32 31 -25 31 14 0 79 -64 146 -144 58 -69 110 -96 181 -95 48 1 48 2 14 8
-54 11 -101 43 -116 79 -12 30 -12 34 12 58 29 29 61 25 113 -13 53 -40 47
-21 -11 34 -73 70 -146 97 -260 97 -66 0 -91 -4 -97 -14 -5 -8 -12 -11 -17 -7
-22 22 93 43 183 34 96 -10 208 -76 256 -152 18 -27 19 -28 12 -5 -20 73 -119
156 -223 187 -80 25 -230 23 -297 -4 -69 -27 -122 -68 -156 -122 -15 -25 -28
-41 -28 -37 0 19 44 78 87 115 115 102 318 116 474 34 30 -15 56 -29 59 -31 3
-1 4 16 2 38 -2 22 1 54 7 71 11 32 79 159 85 159 2 0 -5 -30 -15 -67z m-603
-543 c94 -62 114 -89 114 -157 0 -47 -4 -59 -28 -83 -77 -77 -212 -19 -212 91
0 43 26 178 35 187 5 4 5 -9 1 -28 -4 -19 -9 -67 -13 -107 -5 -62 -3 -76 16
-106 12 -20 35 -40 53 -46 43 -15 44 -15 10 24 -33 36 -37 54 -47 174 l-7 75
49 -53 c68 -76 93 -119 93 -166 1 -37 2 -39 15 -21 8 11 15 40 15 65 0 51 -18
77 -85 126 -62 45 -115 98 -115 115 0 8 9 1 21 -17 11 -17 49 -50 85 -73z
m-851 -230 c17 -11 25 -20 19 -20 -21 0 -77 45 -86 70 -9 25 -8 25 14 -3 13
-15 37 -36 53 -47z m3055 -1980 c29 0 76 -46 125 -121 25 -38 56 -74 70 -81
14 -6 25 -15 25 -19 0 -11 -33 1 -42 15 -5 7 -8 7 -8 -2 0 -7 -4 -11 -8 -8 -5
3 -40 -2 -78 -10 -122 -25 -166 -18 -211 35 -53 60 -35 143 38 179 24 12 50
20 57 17 8 -3 22 -5 32 -5z m191 -593 c-10 -9 -11 -8 -5 6 3 10 9 15 12 12 3
-3 0 -11 -7 -18z m-1054 -324 c53 -35 64 -95 39 -217 -16 -74 -33 -106 -22
-41 27 163 15 224 -49 251 -51 21 -60 17 -26 -11 36 -31 47 -65 55 -174 l7
-84 -48 53 c-68 75 -93 118 -93 165 -1 37 -2 39 -15 21 -18 -24 -19 -93 -2
-124 7 -12 37 -41 67 -63 88 -66 120 -97 120 -116 -1 -14 -4 -11 -15 8 -8 15
-45 47 -83 72 -107 70 -130 106 -123 186 7 83 111 124 188 74z"/>
<path d="M2371 4609 c-26 -75 -7 -149 38 -149 31 0 32 13 4 36 -25 20 -28 28
-27 83 1 34 0 61 -1 61 -2 0 -8 -14 -14 -31z"/>
<path d="M2517 4588 c5 -54 4 -59 -25 -86 -32 -30 -32 -42 -1 -42 46 0 66 86
35 155 -13 28 -14 27 -9 -27z"/>
<path d="M2728 4535 c-32 -8 -76 -24 -99 -35 -55 -29 -129 -98 -145 -137 -21
-49 -17 -49 19 -1 72 95 188 144 317 135 78 -5 110 -13 110 -27 0 -5 -9 -12
-20 -15 -33 -10 -75 -51 -130 -125 -60 -81 -112 -116 -191 -128 l-54 -8 40
-12 c112 -33 209 11 292 130 14 21 40 47 58 58 44 27 124 41 167 30 36 -10 86
-55 75 -67 -4 -3 -7 -1 -7 5 0 21 -66 52 -111 52 -71 -1 -119 -29 -185 -111
-77 -94 -131 -124 -224 -123 -43 1 -82 9 -114 23 -38 17 -46 18 -36 6 20 -24
80 -52 157 -74 71 -19 146 -53 174 -78 15 -12 17 -9 22 32 5 52 34 90 84 111
33 14 214 47 221 40 3 -4 -19 -9 -152 -36 -80 -16 -126 -58 -133 -120 -4 -38
0 -52 26 -91 37 -55 122 -117 177 -130 64 -14 145 -10 190 10 33 15 45 28 58
63 21 55 10 90 -63 202 -28 43 -51 84 -51 90 0 6 6 2 12 -9 6 -11 33 -50 59
-86 27 -37 56 -83 65 -104 21 -51 11 -107 -26 -144 l-29 -29 46 -5 c29 -3 87
-26 152 -60 89 -45 181 -77 181 -62 0 2 -21 13 -47 25 -70 31 -111 66 -137
118 -33 67 -38 103 -25 203 11 82 10 91 -10 131 -32 66 -69 97 -129 107 -28 4
-49 4 -46 -1 3 -4 -2 -8 -10 -8 -27 0 -66 -44 -70 -79 -2 -18 3 -63 10 -100 8
-36 14 -84 14 -106 0 -115 -135 -175 -210 -94 -32 33 -41 67 -30 116 10 44 38
73 121 128 76 51 106 96 94 141 -5 16 -9 41 -10 55 -6 63 -88 145 -184 183
-61 24 -192 29 -263 11z"/>
<path d="M2713 4475 c-29 -8 -70 -23 -90 -34 -40 -20 -135 -111 -117 -111 6 0
19 9 29 20 24 26 82 42 106 29 30 -16 39 -41 24 -75 -15 -37 -47 -59 -106 -73
l-44 -10 61 2 c80 4 117 28 204 132 38 45 82 88 99 95 41 17 39 26 -6 34 -57
9 -102 6 -160 -9z"/>
<path d="M2419 4447 l-26 -10 31 -59 c28 -56 31 -58 37 -34 4 14 17 41 28 60
20 31 20 34 4 39 -10 2 -25 7 -33 10 -8 3 -27 0 -41 -6z"/>
<path d="M2256 4354 c-21 -21 -20 -27 10 -63 29 -34 82 -54 132 -49 l34 3 -31
42 c-27 38 -93 83 -120 83 -5 0 -17 -7 -25 -16z"/>
<path d="M2573 4351 c-25 -12 -55 -37 -73 -63 l-32 -43 34 -3 c50 -5 103 15
132 49 30 36 31 42 10 63 -19 20 -20 20 -71 -3z"/>
<path d="M3159 4183 c-8 -9 -41 -36 -73 -59 -33 -24 -67 -56 -78 -71 -22 -34
-24 -102 -3 -129 13 -18 14 -17 15 18 0 51 11 76 60 131 46 52 69 58 26 6 -38
-45 -66 -103 -66 -138 0 -37 11 -44 38 -25 33 23 50 64 58 138 4 36 10 66 15
66 8 0 4 -62 -7 -138 -3 -18 -19 -49 -37 -69 -31 -35 -31 -36 -7 -28 76 24 96
64 84 173 -4 42 -8 92 -8 110 1 37 1 37 -17 15z m-10 -54 c-19 -12 -24 -2 -8
17 9 11 14 13 17 4 3 -7 -2 -16 -9 -21z"/>
<path d="M2334 4082 c-86 -81 -116 -123 -153 -212 -13 -30 -34 -70 -48 -87
-46 -63 0 -33 86 55 71 71 96 105 139 190 28 57 52 96 52 88 0 -8 -23 -60 -50
-115 -59 -117 -133 -203 -221 -258 -33 -20 -59 -37 -59 -39 0 -2 23 7 52 19
113 47 233 196 271 337 11 41 19 104 12 100 0 0 -37 -35 -81 -78z"/>
<path d="M2483 4132 c-3 -37 23 -114 64 -193 52 -101 163 -203 243 -223 20 -5
19 -3 -7 11 -100 56 -213 192 -267 320 -41 99 -30 92 24 -14 52 -102 113 -181
188 -245 47 -41 78 -52 44 -15 -11 12 -33 51 -48 87 -40 95 -85 162 -138 205
-26 21 -44 40 -42 43 9 9 97 -69 132 -117 18 -25 46 -77 61 -114 28 -67 88
-151 102 -143 4 3 20 -4 37 -15 41 -26 47 -24 29 12 -9 17 -20 68 -25 114 -15
146 -52 185 -228 249 -40 14 -70 21 -67 16 3 -6 2 -10 -4 -10 -5 0 -13 5 -16
11 -4 5 -12 8 -18 6 -7 -3 -23 6 -37 19 l-25 23 -2 -27z m147 -49 c76 -50 121
-116 161 -232 11 -30 26 -66 35 -79 9 -13 13 -26 11 -29 -7 -6 -21 20 -79 145
-54 119 -56 122 -121 174 -49 38 -53 52 -7 21z"/>
<path d="M2250 4095 c-85 -29 -128 -51 -163 -84 -44 -40 -58 -75 -67 -166 -5
-46 -16 -97 -25 -114 -18 -36 -12 -38 29 -12 17 11 33 18 37 15 14 -8 77 77
98 134 32 82 75 145 138 200 63 55 52 61 -47 27z m39 -14 c-69 -44 -95 -79
-147 -191 -26 -58 -54 -116 -61 -128 -21 -38 -22 -19 -1 24 10 21 32 73 49
114 17 42 45 93 63 114 31 37 111 96 132 96 5 0 -10 -13 -35 -29z"/>
<path d="M2425 4084 c-23 -104 -89 -228 -157 -292 -19 -17 -63 -48 -98 -68
l-65 -35 45 6 c177 25 248 105 275 309 12 98 13 138 0 80z"/>
<path d="M2464 4090 c2 -14 8 -53 11 -87 18 -187 107 -290 265 -307 l55 -6
-59 31 c-118 62 -225 203 -255 337 -5 24 -12 47 -16 50 -4 4 -4 -4 -1 -18z"/>
<path d="M2440 4020 c0 -52 -7 -95 -25 -150 l-8 -25 24 20 c21 18 21 16 -4
-15 -58 -75 -78 -117 -75 -157 4 -40 9 -34 27 32 10 39 52 95 71 95 20 0 62
-58 76 -107 8 -29 17 -53 20 -53 2 0 4 17 4 38 0 36 -12 61 -77 152 -17 24
-17 25 1 10 18 -14 18 -13 11 10 -16 50 -25 96 -25 135 0 22 -5 47 -10 55 -7
11 -10 -1 -10 -40z"/>
<path d="M968 4020 c49 -35 65 -63 60 -101 -5 -31 9 -38 30 -17 32 32 -2 89
-76 127 -57 29 -62 26 -14 -9z"/>
<path d="M3919 4030 c-43 -22 -89 -74 -89 -99 0 -20 19 -41 36 -41 9 0 11 11
7 35 -6 40 15 71 72 106 39 25 20 24 -26 -1z"/>
<path d="M850 3966 c0 -4 9 -25 21 -48 38 -74 95 -108 127 -76 21 21 14 35
-17 30 -38 -5 -66 11 -101 60 -17 23 -30 38 -30 34z"/>
<path d="M4014 3921 c-21 -35 -63 -55 -99 -49 -27 6 -33 -10 -13 -30 29 -29
93 9 128 76 18 36 5 38 -16 3z"/>
<path d="M3636 3924 c-27 -27 -20 -86 17 -139 18 -27 37 -48 42 -49 15 -2 26
56 21 108 -4 31 -13 58 -27 73 -26 27 -32 28 -53 7z"/>
<path d="M2000 3922 c0 -15 -98 -80 -144 -96 -26 -9 -69 -16 -97 -16 l-51 0
49 -45 c26 -24 51 -44 56 -45 4 0 7 13 7 28 0 16 7 37 15 48 13 17 13 15 3
-20 -12 -37 -11 -40 17 -64 l30 -25 6 34 c4 19 7 25 8 13 2 -32 25 -48 41 -29
11 13 10 19 -5 35 -10 11 -13 20 -7 20 6 0 17 -9 25 -20 13 -18 15 -19 21 -5
14 38 6 65 -26 85 -19 12 -26 20 -17 20 9 0 28 -9 43 -21 20 -15 27 -17 30 -7
9 24 11 118 4 118 -5 0 -8 -4 -8 -8z"/>
<path d="M2882 3924 c4 -6 8 -36 9 -67 1 -31 4 -57 7 -57 2 0 15 9 29 20 14
11 33 20 42 20 9 0 2 -8 -16 -20 -33 -20 -41 -47 -27 -85 6 -14 8 -13 21 5 8
11 19 20 25 20 6 0 3 -9 -7 -20 -15 -16 -16 -22 -5 -35 16 -19 39 -3 41 29 1
12 4 6 8 -13 l6 -34 30 25 c28 24 29 27 17 64 -10 35 -10 37 3 20 8 -11 15
-32 15 -48 0 -15 3 -28 8 -28 4 1 29 21 55 45 l49 45 -51 0 c-72 0 -137 25
-205 78 -33 26 -57 42 -54 36z"/>
<path d="M1076 3891 c-4 -6 -15 -11 -25 -11 -9 0 -23 -14 -32 -32 l-14 -33 62
-20 c34 -12 59 -17 56 -11 -4 5 -14 34 -23 64 -10 31 -20 50 -24 43z"/>
<path d="M3795 3835 l-20 -60 62 20 c38 12 58 24 52 30 -5 5 -9 16 -9 25 0 9
-15 22 -32 31 l-33 14 -20 -60z"/>
<path d="M1552 3804 c-28 -8 -82 -30 -119 -49 -38 -20 -59 -33 -48 -29 11 3
54 9 96 11 72 5 81 3 185 -40 143 -59 146 -60 196 -46 l43 12 -32 10 c-18 5
-59 31 -92 57 -100 81 -144 95 -229 74z"/>
<path d="M2432 3797 c-14 -17 -37 -72 -46 -112 l-7 -29 22 19 23 20 -17 -25
c-58 -83 -117 -253 -117 -338 0 -47 0 -46 33 -31 23 10 24 15 19 75 -4 53 0
80 23 149 15 46 33 92 40 102 8 10 3 -13 -11 -52 -14 -38 -30 -94 -35 -124
-12 -60 -3 -135 14 -128 59 22 46 9 -33 -32 -52 -28 -108 -64 -123 -82 l-29
-31 43 -44 43 -44 12 28 c13 29 46 62 109 108 25 18 14 3 -32 -41 -80 -76 -87
-98 -48 -135 l24 -23 -10 37 c-6 21 -9 45 -6 54 2 9 9 -10 16 -43 14 -61 39
-121 47 -112 3 3 1 40 -5 82 -12 80 -14 121 -7 114 2 -2 12 -60 21 -129 9 -69
23 -135 31 -147 8 -12 14 -31 14 -43 0 -49 32 7 47 83 3 15 9 27 14 27 16 0
41 50 59 117 10 38 19 59 19 48 1 -11 -3 -35 -9 -54 l-9 -34 24 23 c39 37 32
58 -47 134 -65 62 -68 66 -24 35 49 -34 100 -86 109 -111 3 -9 18 0 47 28 l42
41 -28 32 c-16 17 -72 54 -124 82 -52 28 -86 47 -75 44 51 -18 52 -18 59 20 4
20 4 57 0 83 -7 51 -63 216 -71 209 -2 -3 3 -32 11 -65 17 -64 21 -158 8 -166
-5 -3 -8 13 -8 36 2 74 -62 80 -75 7 -6 -32 -6 -32 -8 11 0 25 6 73 14 108 8
35 12 69 9 75 -5 9 -4 9 6 0 9 -8 10 -23 1 -63 -15 -68 -15 -65 19 -65 17 0
30 5 30 10 -1 15 -20 98 -27 115 -11 28 -13 50 -3 50 6 0 10 -12 10 -26 0 -14
4 -23 10 -19 13 8 43 -54 70 -143 16 -53 21 -90 18 -137 -4 -59 -2 -64 20 -74
32 -15 32 -16 32 32 0 89 -55 246 -117 337 l-17 25 23 -20 24 -20 -7 30 c-10
41 -49 118 -62 122 -6 2 -16 -2 -22 -10z m5 -832 l0 -80 -7 75 c-4 41 -7 111
-7 155 l0 80 7 -75 c4 -41 7 -111 7 -155z m37 45 c-4 -69 -9 -116 -12 -106 -2
11 -1 81 4 155 4 75 10 123 12 106 2 -16 0 -86 -4 -155z m46 42 c-13 -102 -26
-127 -16 -32 11 100 19 146 24 132 2 -7 -1 -52 -8 -100z"/>
<path d="M3205 3794 c-16 -10 -53 -37 -81 -61 -28 -24 -69 -49 -90 -57 l-39
-13 40 -12 c90 -26 126 -25 210 8 102 39 175 53 245 47 l55 -5 -55 15 c-74 19
-130 11 -256 -37 -130 -49 -169 -51 -54 -3 149 63 166 67 243 61 40 -2 81 -8
92 -11 11 -4 -18 13 -65 36 -99 50 -191 62 -245 32z"/>
<path d="M2278 3710 l-48 -26 52 -17 c29 -9 52 -15 53 -14 0 1 -2 20 -5 42
l-5 40 -47 -25z"/>
<path d="M2568 3694 c-3 -48 -8 -47 69 -20 l32 11 -49 26 -48 26 -4 -43z"/>
<path d="M1405 3717 l-50 -13 90 0 c79 -1 102 -5 186 -37 55 -21 114 -37 135
-36 l39 0 -40 13 c-22 8 -77 28 -123 45 -98 37 -168 45 -237 28z"/>
<path d="M3765 3711 c-16 -3 -30 -11 -29 -16 1 -5 22 -24 49 -42 53 -37 112
-44 139 -17 27 27 17 46 -37 69 -38 16 -70 17 -122 6z"/>
<path d="M1270 3680 c0 -9 152 -60 225 -75 74 -16 213 -18 255 -5 20 6 21 8 6
9 -11 1 -73 19 -138 42 -116 39 -121 40 -233 37 -63 -2 -115 -5 -115 -8z"/>
<path d="M3280 3650 c-63 -22 -124 -40 -135 -41 -17 -1 -16 -2 5 -9 54 -17
195 -11 291 14 82 21 189 60 189 68 0 2 -53 4 -118 6 -114 2 -120 2 -232 -38z"/>
<path d="M1914 3645 c-50 -63 -65 -80 -59 -65 20 46 -102 -106 -130 -164 -36
-71 -37 -86 -4 -86 13 0 19 7 19 23 0 42 20 94 61 157 22 34 43 60 46 57 3 -3
-7 -21 -21 -39 -33 -43 -62 -112 -71 -164 -6 -37 -4 -41 20 -52 39 -18 45 -15
45 22 0 42 60 164 97 196 l27 25 -25 -35 c-42 -56 -79 -137 -85 -184 -6 -37
-3 -45 16 -59 27 -19 40 -14 40 16 0 29 51 116 86 147 23 21 22 18 -8 -20 -38
-49 -68 -117 -68 -154 0 -14 10 -30 24 -39 23 -15 24 -15 36 22 6 21 28 55 47
77 19 21 29 29 23 17 -5 -12 -15 -25 -20 -28 -6 -3 -10 -37 -10 -76 0 -62 2
-69 20 -69 19 0 20 5 15 73 -5 74 -1 70 16 -20 9 -47 13 -53 35 -53 14 0 23 4
20 8 -10 17 -44 152 -37 148 4 -3 16 -35 26 -71 9 -36 20 -65 24 -65 4 0 13
-71 19 -158 12 -163 33 -256 72 -321 12 -18 19 -35 17 -38 -3 -2 -20 5 -38 17
-64 39 -158 61 -314 72 -82 6 -154 14 -160 18 -5 4 -43 18 -83 30 -41 12 -72
23 -70 26 3 2 42 -6 86 -19 l82 -24 0 23 c0 19 -8 24 -52 33 -91 17 -95 21
-20 16 67 -5 72 -4 72 15 0 18 -7 20 -69 20 -39 0 -73 -4 -76 -10 -3 -5 -16
-15 -28 -20 -12 -6 -4 5 18 25 22 19 57 40 77 46 36 11 36 12 21 35 -10 15
-25 24 -42 24 -33 0 -116 -39 -161 -75 l-35 -29 30 33 c33 36 113 81 144 81
11 0 22 4 25 8 9 15 -24 52 -47 52 -41 0 -146 -43 -199 -82 l-53 -39 41 38
c52 48 124 84 180 91 48 5 50 8 32 47 -11 24 -15 26 -52 19 -69 -11 -115 -35
-216 -109 l-96 -72 2 -134 c1 -106 6 -148 23 -201 23 -73 31 -82 61 -73 19 6
18 8 -9 43 -37 46 -60 116 -66 196 l-5 61 14 -70 c17 -84 37 -137 72 -182 25
-33 25 -33 56 -17 l30 16 -20 21 c-40 44 -73 141 -71 207 1 30 2 28 10 -15 18
-110 71 -205 114 -205 35 0 37 11 10 66 -13 27 -27 74 -29 104 l-6 55 15 -63
c24 -105 57 -151 104 -144 l28 4 -19 36 c-10 20 -18 50 -17 67 0 25 2 27 9 10
4 -11 28 -39 52 -63 41 -39 46 -42 59 -26 12 15 11 19 -11 33 -14 9 -41 31
-60 49 -33 32 -32 32 24 -7 63 -44 78 -48 94 -28 8 9 -9 23 -69 56 -91 51
-100 69 -10 21 33 -18 64 -29 69 -26 5 3 53 -35 107 -84 133 -124 231 -188
315 -204 28 -6 23 -2 -25 22 -45 22 -82 52 -143 118 l-83 89 38 7 c109 20 274
2 321 -35 28 -22 31 9 7 68 -20 48 -24 77 -24 145 0 47 4 105 7 129 l7 43 88
-82 c81 -76 116 -125 138 -190 7 -18 7 -14 3 14 -12 82 -76 185 -200 317 -46
50 -82 94 -80 98 3 4 -11 38 -30 75 -50 96 -37 92 18 -5 44 -77 47 -80 58 -59
11 20 7 30 -30 84 -39 57 -39 59 -8 26 18 -19 40 -46 50 -60 15 -23 18 -24 32
-10 15 14 12 20 -33 64 -34 34 -57 49 -76 49 -15 0 -23 3 -18 8 11 10 101 -7
129 -26 21 -13 22 -12 26 15 7 48 -39 81 -144 104 -35 8 -53 14 -41 15 42 2
123 -21 157 -44 36 -25 46 -19 46 25 0 37 -103 93 -200 109 -46 7 -49 9 -19
10 52 1 163 -35 199 -66 17 -14 32 -24 33 -22 2 2 8 16 15 31 10 25 9 29 -21
52 -46 35 -100 56 -182 71 -42 8 -57 14 -38 14 72 2 189 -36 236 -77 13 -11
20 -13 29 -4 21 21 -1 41 -69 63 -55 17 -94 22 -201 23 l-133 2 -25 -31z
m-384 -859 c0 -3 -4 -8 -10 -11 -5 -3 -10 -1 -10 4 0 6 5 11 10 11 6 0 10 -2
10 -4z"/>
<path d="M2681 3664 c-84 -17 -131 -38 -131 -59 0 -22 20 -28 38 -12 34 30
103 57 179 71 65 12 71 14 33 14 -25 0 -78 -6 -119 -14z"/>
<path d="M2850 3665 c-118 -17 -189 -39 -237 -74 -40 -29 -41 -31 -30 -61 13
-34 19 -37 38 -14 30 36 170 83 214 71 14 -3 10 -5 -11 -6 -60 -2 -189 -58
-209 -91 -4 -6 -3 -24 0 -41 6 -28 8 -29 24 -15 26 24 81 43 141 50 l55 5 -62
-14 c-107 -24 -155 -60 -146 -109 5 -23 5 -23 41 -5 43 20 115 33 107 18 -4
-5 -14 -9 -23 -9 -10 0 -39 -22 -65 -48 -44 -45 -47 -50 -31 -63 15 -12 19
-11 33 11 9 14 31 41 49 60 31 33 31 31 -8 -26 -37 -54 -41 -64 -30 -84 11
-21 14 -18 56 54 24 42 47 76 50 76 3 0 -12 -32 -33 -72 -20 -39 -38 -78 -39
-85 -1 -8 -36 -49 -76 -91 -111 -116 -180 -226 -193 -308 l-6 -39 14 35 c31
80 63 121 164 208 l61 52 7 -76 c10 -104 2 -191 -24 -249 -27 -61 -17 -73 39
-45 51 26 160 37 246 24 55 -8 50 -9 -72 -14 -123 -5 -135 -7 -194 -38 -35
-18 -67 -29 -71 -25 -5 5 6 37 24 73 30 61 32 71 35 200 l4 135 -77 -75 c-73
-72 -145 -186 -145 -229 0 -10 -6 -25 -13 -36 -13 -16 -15 -13 -26 31 -21 81
-68 156 -147 235 l-76 74 4 -136 c3 -134 4 -138 39 -207 20 -39 35 -73 32 -75
-2 -3 -36 12 -75 32 -69 35 -73 36 -207 39 l-136 4 74 -76 c78 -79 154 -126
234 -146 26 -7 47 -16 47 -21 0 -5 10 -9 23 -10 16 0 11 -4 -18 -15 -70 -26
-66 -35 14 -30 40 2 75 7 78 10 3 3 -2 12 -11 21 -9 9 -16 22 -16 28 0 7 8 2
18 -10 15 -20 21 -21 61 -12 24 5 50 8 58 5 7 -3 13 1 13 9 0 8 7 15 15 15 8
0 12 6 9 13 -3 8 0 34 5 58 9 40 8 46 -12 62 -20 16 -20 17 -2 10 25 -8 45
-34 38 -48 -4 -5 -3 -7 1 -3 5 4 9 49 11 100 l3 93 -19 -40 c-10 -22 -19 -47
-19 -55 0 -12 -2 -12 -8 -2 -5 8 1 33 16 65 30 63 31 65 41 49 4 -7 11 5 18
31 7 23 24 53 38 67 l27 25 -24 -37 c-25 -36 -50 -119 -63 -208 l-6 -45 25 30
c42 49 100 156 107 200 l6 40 2 -38 c0 -21 -8 -56 -20 -80 -19 -36 -19 -40 -4
-27 17 14 17 13 10 -10 -4 -14 -13 -40 -21 -57 -7 -18 -10 -33 -7 -33 3 0 -2
-10 -13 -22 l-19 -23 23 19 c12 11 22 16 22 13 0 -3 15 0 33 7 17 8 43 17 57
21 23 7 24 7 10 -10 -13 -15 -9 -15 27 4 24 12 59 20 80 20 l38 -2 -40 -6
c-47 -8 -96 -34 -180 -91 l-60 -42 50 7 c89 12 175 37 213 63 l37 24 -25 -26
c-13 -15 -44 -33 -70 -41 -25 -7 -39 -14 -32 -14 6 -1 12 -5 12 -10 0 -10 -96
-51 -119 -50 -9 0 2 7 24 15 74 27 66 37 -22 29 -46 -4 -83 -5 -83 -3 0 3 28
27 62 53 63 49 67 70 6 39 -18 -9 -43 -18 -55 -20 l-21 -2 25 49 c36 74 24 79
-31 13 -41 -50 -45 -60 -30 -63 31 -6 46 -23 40 -47 -4 -16 0 -27 16 -39 21
-15 22 -16 3 -14 -30 4 -115 -11 -115 -20 0 -13 96 -29 114 -19 23 13 20 -1
-4 -20 -20 -16 -17 -17 65 -19 91 -3 104 8 34 28 l-40 12 38 18 c21 10 45 18
54 19 9 0 47 16 86 35 50 25 91 57 147 115 43 44 80 79 82 77 2 -2 -30 -40
-71 -85 -77 -82 -120 -115 -184 -139 l-36 -14 39 6 c82 13 189 81 310 196 41
38 83 71 93 73 10 2 49 21 86 41 38 21 70 35 72 33 3 -3 -31 -24 -74 -49 -60
-33 -77 -47 -69 -56 16 -20 31 -16 94 28 42 29 51 33 29 12 -17 -15 -43 -38
-59 -50 -24 -19 -27 -25 -16 -38 12 -14 19 -10 62 32 29 29 48 56 48 70 0 13
4 23 9 23 12 0 -6 -99 -23 -125 -14 -22 -14 -23 14 -27 48 -7 80 38 105 144
l15 63 -6 -55 c-2 -30 -16 -77 -29 -104 -27 -55 -25 -66 10 -66 43 0 94 92
115 205 l9 50 -4 -60 c-5 -68 -25 -124 -62 -173 -14 -18 -23 -34 -22 -36 2 -1
16 -7 31 -14 25 -10 29 -9 52 21 14 18 32 49 40 69 14 32 56 241 56 274 0 7
-21 30 -47 50 -27 20 -47 40 -46 44 4 15 -100 99 -163 132 -61 32 -94 33 -94
3 0 -9 9 -15 23 -15 42 0 94 -20 157 -61 34 -22 60 -42 57 -45 -2 -3 -32 13
-66 35 -51 32 -130 61 -170 61 -8 0 -31 -44 -31 -59 0 -5 20 -11 44 -13 61 -7
127 -41 184 -95 45 -43 45 -43 5 -11 -57 46 -142 87 -196 94 -39 6 -46 3 -61
-17 -22 -32 -20 -39 9 -39 35 0 114 -42 145 -76 l25 -27 -35 26 c-47 35 -119
67 -151 67 -17 0 -32 -9 -43 -24 -15 -24 -15 -25 14 -31 16 -4 33 -11 36 -17
4 -6 -1 -8 -12 -5 -58 18 -71 18 -85 1 -13 -15 -9 -16 54 -12 63 4 70 2 100
-24 22 -20 25 -26 10 -18 -12 5 -25 15 -28 20 -3 6 -37 10 -76 10 -63 0 -69
-2 -69 -20 0 -19 5 -20 68 -15 76 6 73 1 -10 -15 -47 -9 -58 -15 -58 -31 0
-23 7 -23 77 -3 30 9 57 14 59 11 3 -3 -21 -13 -53 -22 -32 -9 -63 -21 -69
-26 -6 -5 -78 -13 -160 -18 -155 -9 -241 -29 -312 -73 -18 -11 -35 -19 -37
-16 -2 2 9 30 26 63 37 76 55 168 63 319 4 66 11 125 15 130 5 6 16 38 26 71
10 33 19 55 22 49 2 -6 -5 -38 -16 -72 l-19 -62 23 0 c20 0 25 7 34 53 17 90
20 94 16 20 -3 -67 -2 -73 16 -73 17 0 19 7 19 69 0 39 -4 73 -10 76 -5 3 -15
16 -20 28 -6 12 5 4 25 -18 19 -22 40 -57 46 -77 11 -36 12 -36 35 -21 40 26
25 98 -38 185 l-39 53 44 -48 c38 -42 50 -65 73 -146 4 -11 8 -11 27 2 43 29
22 126 -51 232 -31 44 -32 47 -8 25 36 -33 96 -155 96 -196 0 -37 6 -40 45
-22 23 10 25 15 19 52 -7 51 -37 119 -70 164 -14 18 -24 36 -21 39 3 3 24 -23
46 -57 41 -63 61 -115 61 -157 0 -16 6 -23 19 -23 11 0 22 4 25 8 11 18 -63
149 -113 202 -29 30 -50 49 -46 43 14 -28 -5 -10 -44 42 -23 30 -47 55 -54 54
-7 -1 -50 -7 -97 -14z m-521 -809 c12 -13 29 -43 36 -67 8 -24 14 -38 14 -31
1 6 5 12 10 12 10 0 51 -96 50 -119 0 -9 -9 8 -20 37 -12 29 -23 51 -26 49 -2
-3 -1 -42 3 -88 6 -69 9 -79 19 -65 11 14 13 7 17 -41 3 -32 5 -59 3 -60 -1
-2 -13 14 -26 35 -17 25 -32 37 -46 36 -12 0 -19 4 -16 9 3 5 14 7 24 4 28 -7
24 2 -28 68 -48 61 -68 63 -37 3 9 -18 18 -43 20 -55 l2 -22 -49 24 c-49 25
-74 32 -65 17 13 -21 125 -101 119 -85 -6 14 -1 13 24 -7 17 -14 39 -31 49
-38 18 -12 17 -12 -6 -8 -14 3 -43 6 -65 7 -22 0 -34 3 -27 6 29 12 7 22 -63
28 -42 4 -78 5 -81 2 -3 -3 19 -14 48 -26 29 -11 46 -20 37 -20 -23 -1 -119
40 -119 50 0 5 6 9 13 10 6 0 -8 6 -32 14 -43 14 -91 50 -91 69 0 6 7 1 15
-11 8 -11 32 -28 53 -36 39 -16 178 -47 208 -47 41 0 -163 121 -221 131 l-40
6 38 2 c21 0 56 -8 80 -20 36 -19 40 -19 27 -4 -14 17 -13 17 10 10 14 -4 39
-13 57 -20 47 -19 57 -2 32 54 -23 52 -24 68 -4 51 11 -9 10 -2 -5 31 -11 24
-19 60 -19 79 l2 35 6 -40 c8 -47 29 -88 87 -174 49 -70 51 -65 28 46 -20 97
-41 150 -67 168 -12 8 -17 15 -11 15 6 0 21 -11 33 -24z"/>
<path d="M2290 2606 c0 -2 8 -10 18 -17 15 -13 16 -12 3 4 -13 16 -21 21 -21
13z"/>
<path d="M1161 3596 c-60 -122 -149 -165 -300 -145 -97 13 -141 4 -191 -37
-46 -39 -63 -79 -56 -129 4 -23 13 -51 21 -61 8 -11 15 -22 15 -25 0 -7 -51
-20 -93 -24 -40 -4 -106 -54 -144 -109 -33 -48 -63 -155 -63 -223 0 -57 26
-165 49 -212 38 -73 107 -140 161 -155 23 -7 22 -6 -5 12 -45 28 -95 90 -123
151 -28 61 -40 173 -25 230 7 28 9 17 9 -55 0 -118 26 -184 101 -262 30 -31
48 -46 39 -32 -36 54 -48 92 -37 116 35 79 129 26 152 -86 6 -33 7 -32 8 14 1
67 -29 127 -91 179 -103 86 -124 106 -138 134 -8 15 -19 31 -25 35 -5 4 -6 11
-1 15 5 4 11 3 13 -4 13 -36 57 -83 128 -138 90 -70 134 -137 136 -209 l1 -41
15 45 c34 106 -10 199 -140 295 -44 33 -63 65 -78 134 -8 37 -8 60 0 84 12 37
57 85 68 74 3 -4 1 -7 -5 -7 -22 0 -52 -63 -52 -110 1 -72 29 -119 111 -186
95 -76 124 -130 123 -224 -1 -42 -9 -83 -23 -115 l-21 -50 24 27 c25 28 45 75
71 169 9 31 31 81 49 111 l33 56 -44 5 c-80 9 -123 74 -139 212 -4 33 -11 70
-15 83 -6 14 -5 21 0 17 5 -3 15 -31 21 -63 31 -157 63 -216 125 -228 49 -9
96 11 149 63 65 64 88 113 94 201 5 83 -15 151 -51 175 -60 39 -109 28 -231
-52 -43 -28 -84 -51 -90 -51 -6 0 3 9 20 19 17 11 59 40 94 65 101 75 177 81
234 19 l23 -25 7 52 c4 32 25 87 56 146 43 81 76 172 66 181 -2 2 -17 -26 -35
-61z m-185 -405 c69 -42 81 -138 23 -191 -33 -32 -67 -41 -116 -30 -44 10 -73
38 -128 120 -24 36 -56 73 -72 82 l-28 18 27 -2 c15 -1 26 -5 25 -8 -3 -7 68
-94 119 -147 37 -38 47 -43 86 -43 24 0 53 7 64 15 18 13 16 14 -21 15 -47 0
-90 25 -166 93 l-53 49 75 -7 c120 -10 138 -14 174 -47 39 -34 41 -32 21 17
-27 64 -88 76 -251 49 -23 -4 -37 -3 -32 2 11 11 117 31 177 33 29 0 56 -6 76
-18z"/>
<path d="M790 3130 c86 -72 154 -102 195 -86 13 4 14 10 5 26 -18 33 -67 57
-128 65 -32 3 -66 8 -77 11 -17 5 -16 2 5 -16z"/>
<path d="M1325 3631 c28 -16 87 -42 132 -57 72 -23 93 -26 180 -22 62 3 114
11 141 23 24 9 41 19 40 20 -2 2 -32 -3 -68 -12 -124 -29 -225 -13 -455 71
-11 5 3 -6 30 -23z"/>
<path d="M3538 3630 c-136 -58 -274 -74 -393 -46 -33 8 -61 13 -63 12 -1 -2
16 -12 40 -21 27 -12 79 -20 140 -23 103 -5 193 14 281 60 63 32 53 14 -11
-20 -136 -73 -277 -82 -427 -27 -29 10 39 -45 89 -72 62 -34 153 -32 231 6 69
33 176 116 172 132 -1 6 3 13 9 16 6 2 11 -4 11 -13 0 -18 -126 -127 -169
-146 -30 -14 -35 -23 -15 -31 6 -3 -8 -6 -33 -7 -53 -1 -113 -21 -141 -46 -32
-29 -21 -34 24 -9 39 21 127 43 127 32 0 -3 -24 -13 -52 -21 -29 -9 -64 -25
-78 -36 l-25 -20 25 0 c14 -1 -8 -10 -48 -20 -89 -24 -197 -79 -258 -133 l-47
-41 27 -12 c26 -10 31 -7 84 46 35 35 82 68 122 87 100 47 126 49 32 3 -81
-40 -182 -123 -182 -149 0 -6 15 -18 33 -26 56 -25 14 -16 -73 15 -52 18 -105
30 -137 30 l-53 0 0 -59 0 -59 28 10 c19 8 53 8 107 1 l80 -10 -91 1 c-104 0
-120 -7 -126 -61 -5 -39 -3 -38 45 28 l18 24 -12 -25 c-7 -14 -22 -41 -34 -60
-21 -33 -44 -115 -27 -95 4 6 34 45 66 88 32 42 60 77 63 77 7 0 -7 -20 -71
-104 -75 -97 -98 -138 -82 -148 6 -4 7 -8 1 -8 -6 0 -16 -9 -23 -21 -11 -17
-11 -20 0 -13 7 4 19 16 26 26 7 10 18 18 24 18 6 0 5 -7 -3 -17 -13 -14 -10
-14 20 1 19 10 52 20 75 23 23 2 45 8 49 12 5 5 28 6 52 4 37 -5 45 -2 55 18
8 13 13 58 13 104 l0 80 10 -64 c7 -44 7 -76 0 -103 l-10 -38 58 0 59 0 0 53
c0 32 -12 85 -30 137 -33 93 -36 108 -14 68 8 -16 20 -28 26 -28 25 0 105 99
146 180 24 47 40 74 37 60 -20 -70 -82 -174 -131 -219 -49 -45 -51 -49 -40
-76 l12 -28 43 49 c51 57 126 207 139 279 5 28 10 39 11 25 l1 -25 19 25 c11
13 25 42 32 65 18 56 32 69 24 20 -4 -22 -18 -60 -32 -83 -24 -41 -24 -43 -4
-33 29 16 52 65 58 126 4 40 9 52 19 48 8 -3 14 0 14 7 0 25 136 197 147 186
3 -3 -15 -29 -40 -57 -136 -155 -153 -309 -49 -432 19 -23 32 -33 28 -22 -54
135 -47 285 20 416 14 28 27 49 29 47 3 -2 -10 -40 -27 -84 -39 -100 -49 -238
-24 -324 9 -30 21 -62 27 -70 9 -13 10 -13 6 1 -38 119 -33 251 14 394 19 55
33 109 31 120 -2 16 0 17 8 5 8 -12 10 -13 10 -1 0 8 2 12 5 9 3 -3 -5 -34
-18 -69 -38 -100 -57 -201 -56 -291 1 -77 15 -167 18 -112 1 12 17 66 37 120
39 109 50 191 37 294 -7 61 -10 65 -33 65 -15 0 -25 6 -25 14 0 23 -16 21 -87
-9z m94 -52 c-7 -7 -12 -8 -12 -2 0 6 3 14 7 17 3 4 9 5 12 2 2 -3 -1 -11 -7
-17z m-334 -310 c-52 -91 -105 -158 -125 -158 -11 0 -7 7 11 21 20 15 26 29
24 48 -4 36 -42 40 -75 9 -25 -22 -25 -22 -14 -1 6 12 25 32 43 45 26 19 168
106 175 108 1 0 -17 -33 -39 -72z m-339 -275 c-8 -10 -56 -65 -108 -123 -52
-58 -96 -107 -98 -109 -1 -2 -3 0 -3 5 0 10 208 244 217 244 3 0 -1 -8 -8 -17z
m-24 -99 c-94 -89 -155 -139 -154 -127 0 9 220 203 229 203 3 -1 -31 -35 -75
-76z m85 12 c0 -9 -171 -138 -176 -134 -2 3 35 35 83 71 91 69 93 70 93 63z
m0 -70 c0 -8 -71 -48 -76 -43 -3 2 10 14 28 25 33 20 48 26 48 18z"/>
<path d="M3251 3275 c-69 -44 -66 -40 -40 -66 l23 -23 15 24 c26 38 62 100 59
100 -2 0 -27 -16 -57 -35z"/>
<path d="M3704 3630 c4 -19 32 -85 63 -146 33 -68 57 -130 60 -158 5 -43 7
-45 19 -27 8 11 34 27 57 36 58 22 105 9 187 -51 35 -25 77 -54 94 -65 17 -10
26 -19 20 -19 -6 0 -47 23 -90 51 -122 80 -171 91 -231 52 -57 -37 -70 -191
-25 -285 28 -56 95 -126 139 -144 55 -23 91 -18 128 19 30 30 65 113 65 156 0
22 21 94 25 89 2 -2 -2 -44 -10 -92 -24 -147 -66 -206 -149 -206 l-36 0 34
-52 c19 -29 44 -89 56 -133 24 -85 50 -144 72 -163 10 -8 7 9 -9 56 -27 80
-28 102 -7 173 17 55 61 108 148 173 21 16 47 47 57 70 21 47 24 121 6 153
-17 31 -61 62 -96 69 -30 6 -30 7 -16 34 41 80 26 148 -46 200 -53 38 -82 43
-176 30 -151 -20 -240 21 -301 140 -41 79 -46 85 -38 40z m399 -434 c38 -8 85
-13 105 -10 20 2 31 2 24 -2 -6 -3 -10 -9 -7 -14 3 -4 -3 -7 -13 -6 -11 1 -32
-23 -60 -64 -59 -90 -92 -121 -138 -129 -57 -9 -80 -3 -114 30 -39 39 -47 73
-29 123 28 80 94 101 232 72z"/>
<path d="M3934 3172 c-25 -16 -54 -64 -54 -90 0 -2 16 10 35 26 36 32 54 37
174 47 43 4 71 3 67 -3 -3 -5 -24 -9 -48 -10 -83 -3 -150 -23 -181 -53 -37
-37 -27 -53 29 -46 30 3 60 17 96 44 74 55 88 61 53 23 -49 -53 -114 -90 -159
-90 -38 -1 -40 -2 -22 -15 27 -20 95 -19 128 3 15 10 41 38 59 62 17 25 44 59
60 75 l28 30 -37 1 c-20 1 -73 5 -117 8 -70 6 -84 5 -111 -12z"/>
<path d="M1283 3632 c2 -6 -9 -14 -15 -11 -2 1 -14 2 -28 3 l-25 2 -3 -113
c-3 -110 -2 -116 37 -231 23 -65 42 -129 42 -143 3 -53 17 36 18 114 1 89 -20
202 -55 295 -33 89 -24 89 13 0 60 -144 77 -282 49 -403 -8 -33 -13 -61 -12
-63 2 -1 12 16 21 40 12 27 20 79 23 140 5 111 -16 201 -69 297 -17 29 -28 55
-25 58 10 10 86 -145 102 -210 20 -82 15 -211 -10 -271 -9 -22 -15 -41 -13
-42 7 -7 75 92 86 125 32 97 0 210 -93 323 -52 64 -60 84 -18 47 l27 -24 -24
28 c-36 40 -17 33 47 -19 95 -78 145 -98 237 -99 89 0 124 13 190 70 l40 35
-49 -21 c-63 -27 -186 -36 -267 -19 -34 7 -99 32 -145 56 -46 23 -82 39 -81
36z"/>
<path d="M1330 3564 c0 -4 14 -22 31 -41 17 -20 38 -51 47 -69 9 -21 21 -33
29 -30 9 4 13 -6 13 -32 1 -45 22 -106 46 -133 30 -33 36 -21 11 24 -14 23
-28 60 -32 82 -8 49 7 36 23 -20 7 -22 21 -51 32 -65 18 -23 20 -23 20 -5 1
11 11 -14 23 -55 28 -92 89 -207 136 -256 l36 -36 11 27 c10 25 7 30 -46 83
-35 35 -68 82 -87 122 -47 100 -49 126 -3 32 39 -80 123 -182 148 -182 6 0 18
12 26 28 22 39 19 27 -14 -68 -18 -52 -30 -105 -30 -137 l0 -53 59 0 58 0 -10
38 c-7 25 -7 57 0 97 l11 60 -1 -75 c-1 -44 5 -85 12 -99 11 -20 18 -23 56
-18 24 2 47 1 52 -4 4 -4 26 -10 49 -12 23 -3 56 -12 73 -22 18 -9 35 -14 39
-11 3 3 15 -2 26 -11 21 -18 21 -18 3 3 -9 11 -15 23 -11 26 3 3 -2 23 -12 44
-9 22 -18 54 -20 73 -2 19 -7 38 -12 43 -5 5 -7 29 -5 53 5 38 2 45 -18 56
-14 8 -55 12 -99 12 -64 -1 -69 0 -35 8 56 11 113 11 136 -1 18 -10 19 -7 19
50 l0 60 -52 0 c-30 0 -83 -11 -123 -25 -79 -28 -97 -31 -71 -12 15 11 16 18
8 33 -22 40 -83 87 -168 130 -49 25 -78 42 -64 38 62 -16 182 -89 223 -134 41
-45 44 -47 71 -36 l29 12 -47 41 c-61 54 -169 109 -258 133 -40 10 -62 19 -48
20 l25 0 -25 20 c-14 11 -43 25 -65 32 -22 6 -44 16 -50 21 -18 16 58 -3 108
-28 49 -25 61 -21 28 9 -27 25 -88 45 -136 46 -27 0 -35 3 -26 9 10 7 5 13
-22 26 -19 9 -53 32 -75 51 -39 33 -52 40 -52 28z m278 -249 c99 -59 158 -104
176 -135 l19 -35 -29 34 c-22 24 -36 32 -54 30 -34 -5 -39 -43 -9 -75 12 -13
18 -24 11 -24 -25 0 -139 171 -127 190 3 6 0 10 -8 10 -8 0 -18 7 -21 16 -7
17 -5 17 42 -11z m484 -413 c22 -29 39 -55 36 -58 -5 -4 -59 64 -116 146 l-24
35 31 -35 c18 -19 50 -59 73 -88z m-2 82 c12 -19 20 -37 17 -40 -4 -4 -47 61
-47 72 0 11 10 1 30 -32z m18 -162 c41 -46 52 -66 44 -74 -12 -12 -70 35 -202
162 -85 82 -41 48 80 -61 153 -138 157 -133 15 26 -44 50 -89 101 -99 115 -24
32 89 -85 162 -168z m-105 -2 c32 -23 56 -45 53 -47 -5 -6 -95 61 -146 107
l-35 32 35 -24 c19 -13 61 -44 93 -68z m-78 -1 c20 -12 34 -24 31 -26 -6 -6
-63 24 -71 37 -9 15 0 12 40 -11z"/>
<path d="M1619 3263 c11 -21 26 -47 34 -57 14 -19 14 -19 35 2 12 12 22 24 22
26 0 4 -99 66 -106 66 -2 0 4 -17 15 -37z"/>
<path d="M1180 3472 c-13 -81 -7 -114 49 -262 30 -78 40 -97 41 -74 0 18 -16
76 -36 130 -32 86 -37 111 -37 187 0 48 -1 87 -3 87 -1 0 -7 -31 -14 -68z"/>
<path d="M3705 3490 c7 -70 -7 -143 -46 -245 -33 -85 -35 -137 -7 -215 l11
-34 14 38 c7 21 33 62 56 90 67 78 80 109 75 181 -3 46 -14 81 -45 146 -23 46
-39 71 -35 54 4 -16 7 -66 7 -110 0 -72 -4 -89 -39 -164 -21 -46 -42 -96 -46
-110 -5 -16 -9 -19 -9 -9 -1 10 18 66 41 125 36 93 42 118 41 178 -1 39 -6 84
-12 100 -9 26 -10 22 -6 -25z"/>
<path d="M1134 3448 c-28 -60 -39 -100 -42 -144 -5 -71 8 -102 75 -180 23 -28
49 -69 57 -90 l13 -39 12 43 c14 50 9 71 -44 192 -42 95 -55 188 -36 254 6 22
9 41 7 43 -1 2 -20 -34 -42 -79z"/>
<path d="M1674 3461 l-50 -16 32 -31 31 -32 21 46 c12 25 20 47 19 47 -1 1
-25 -5 -53 -14z"/>
<path d="M3170 3477 c0 -1 10 -23 23 -48 l22 -45 33 33 c29 29 30 33 12 33
-11 0 -36 7 -55 14 -19 8 -35 14 -35 13z"/>
<path d="M2685 3356 c-33 -14 -59 -40 -53 -55 1 -5 23 9 47 30 24 21 42 39 40
39 -2 -1 -18 -7 -34 -14z"/>
<path d="M2228 3326 c20 -19 39 -30 41 -24 5 14 -44 58 -64 58 -8 0 2 -15 23
-34z"/>
<path d="M1438 3223 c-8 -29 -14 -53 -12 -53 2 0 22 10 46 23 l43 23 -30 30
-31 30 -16 -53z"/>
<path d="M1972 3238 c-9 -34 -8 -46 2 -56 11 -11 14 -4 15 42 0 31 -1 56 -3
56 -2 0 -8 -19 -14 -42z"/>
<path d="M2910 3226 c0 -50 2 -57 15 -46 9 8 12 22 8 43 -11 62 -22 63 -23 3z"/>
<path d="M3414 3245 l-31 -31 46 -22 c25 -11 46 -20 47 -19 0 1 -6 25 -15 53
l-16 50 -31 -31z"/>
<path d="M1484 3175 c-38 -19 -95 -57 -127 -85 -70 -60 -67 -65 6 -11 70 52
108 70 162 78 44 6 53 15 37 41 -7 9 -25 4 -78 -23z"/>
<path d="M1088 3123 c-6 -78 -32 -141 -82 -195 l-35 -38 58 0 c32 0 61 3 64 6
3 4 -3 18 -13 32 -11 13 -20 32 -20 41 0 9 8 2 20 -16 20 -33 47 -41 85 -27
14 6 13 8 -5 21 -11 8 -20 19 -20 25 0 6 9 3 20 -7 16 -15 22 -16 35 -5 19 16
3 39 -29 41 -12 1 -6 4 13 8 l34 6 -25 30 c-24 28 -27 29 -64 17 -35 -10 -37
-10 -20 3 11 8 33 15 48 15 33 0 32 5 -23 69 l-36 41 -5 -67z"/>
<path d="M3763 3140 c-24 -27 -43 -51 -43 -54 0 -3 13 -6 28 -6 16 0 37 -7 48
-15 17 -13 15 -13 -20 -3 -37 12 -40 11 -64 -17 l-25 -30 34 -6 c19 -4 25 -7
13 -8 -32 -2 -48 -25 -29 -41 13 -11 20 -9 42 11 l26 24 -12 -23 c-7 -13 -19
-26 -27 -29 -22 -8 2 -23 39 -23 20 0 32 8 47 33 14 22 20 26 20 14 0 -10 -11
-29 -25 -43 -16 -16 -21 -26 -12 -29 11 -4 127 -12 127 -9 0 1 -16 18 -35 39
-48 53 -76 119 -84 196 l-6 66 -42 -47z"/>
<path d="M4359 3155 c53 -45 61 -112 24 -206 -9 -23 -37 -55 -78 -87 -78 -63
-110 -104 -125 -161 -12 -45 -6 -125 11 -151 6 -11 9 -3 9 26 0 71 44 139 135
209 71 55 115 102 128 138 2 7 8 8 13 4 5 -4 4 -11 -1 -15 -6 -4 -17 -20 -25
-36 -8 -16 -52 -60 -96 -97 -103 -86 -127 -124 -131 -203 -2 -58 -2 -59 7 -19
22 104 112 154 150 83 13 -25 1 -72 -27 -102 -9 -10 -14 -21 -11 -23 12 -12
98 99 119 153 17 44 23 78 23 147 0 98 13 80 15 -21 2 -115 -50 -225 -139
-293 -33 -24 -38 -32 -20 -26 59 18 130 90 166 170 30 66 48 174 40 242 -14
121 -62 209 -144 263 -55 37 -85 40 -43 5z"/>
<path d="M1662 2930 c-54 -13 -49 -20 11 -19 47 1 55 4 46 15 -6 8 -14 14 -18
13 -3 -1 -21 -5 -39 -9z"/>
<path d="M1165 2903 c-16 -9 -67 -20 -112 -24 -145 -15 -189 -57 -249 -231
-13 -38 -19 -66 -13 -63 11 8 12 -8 1 -20 -5 -6 23 22 62 61 60 59 85 76 155
105 75 31 163 90 159 107 -1 4 6 22 16 40 9 19 16 35 14 37 -2 2 -16 -4 -33
-12z m-23 -80 c-13 -9 -70 -38 -128 -64 -121 -55 -124 -57 -176 -122 -40 -51
-47 -54 -24 -8 26 50 99 106 181 140 44 18 98 41 120 51 50 23 56 23 27 3z"/>
<path d="M3700 2913 c0 -5 9 -23 20 -41 21 -34 40 -44 194 -107 77 -32 116
-61 157 -119 43 -58 35 -65 -9 -9 -52 65 -49 63 -197 133 -117 55 -127 58
-101 31 15 -16 68 -45 119 -67 79 -32 102 -48 163 -108 39 -39 67 -67 62 -61
-11 12 -10 28 1 20 12 -7 -29 115 -54 166 -22 44 -62 87 -98 106 -16 8 -66 18
-112 23 -46 5 -97 16 -114 25 -17 8 -31 12 -31 8z"/>
<path d="M3670 2820 c0 -73 -38 -188 -78 -233 -11 -13 -13 -20 -4 -29 21 -21
41 1 61 67 20 65 40 225 27 225 -3 0 -6 -13 -6 -30z"/>
<path d="M3723 2768 c31 -75 131 -177 215 -221 79 -41 157 -67 193 -64 25 2
23 5 -40 76 -75 83 -118 115 -211 155 -36 16 -80 39 -97 53 -63 46 -33 0 55
-86 71 -71 105 -96 190 -139 57 -28 96 -52 88 -52 -8 0 -60 23 -115 50 -117
59 -203 133 -258 221 -20 33 -37 59 -39 59 -2 0 7 -23 19 -52z"/>
<path d="M1161 2767 c-57 -98 -177 -196 -309 -251 -89 -38 -98 -32 -14 9 39
19 98 52 130 74 59 40 197 179 187 189 -3 3 -15 -4 -28 -15 -12 -11 -58 -37
-102 -57 -107 -49 -138 -72 -216 -159 -74 -81 -71 -87 30 -60 133 36 272 141
325 248 34 66 31 82 -3 22z"/>
<path d="M1172 2727 c-51 -104 -154 -187 -292 -235 l-65 -22 74 6 c184 14 287
95 310 243 6 36 9 66 7 68 -2 2 -17 -25 -34 -60z"/>
<path d="M3696 2755 c11 -82 17 -101 40 -142 30 -52 93 -96 165 -117 57 -16
209 -39 216 -32 2 2 -26 11 -63 20 -145 37 -279 139 -337 256 l-27 55 6 -40z"/>
<path d="M1540 2695 c0 -20 44 -69 58 -64 6 2 -5 21 -24 41 -19 21 -34 31 -34
23z"/>
<path d="M1692 2685 c-18 -15 -52 -68 -79 -121 -45 -89 -66 -118 -43 -59 6 15
8 31 4 34 -3 3 -36 5 -72 5 -60 -1 -96 -10 -237 -58 -11 -4 -4 2 15 12 67 38
176 65 245 60 59 -4 64 -2 74 20 15 32 16 32 -31 32 -85 0 -255 -59 -338 -117
l-25 -17 20 23 19 22 -29 -6 c-51 -12 -120 -49 -120 -65 0 -16 69 -53 120 -65
l29 -6 -19 21 c-13 15 -2 11 39 -14 76 -46 195 -86 279 -93 37 -3 67 -3 67 0
0 3 -5 17 -11 29 -10 22 -15 24 -74 20 -47 -3 -84 2 -137 18 -89 27 -151 57
-143 70 4 6 -3 10 -14 10 -12 0 -21 5 -21 11 0 7 7 8 18 4 28 -12 116 -35 132
-35 10 0 15 10 15 31 0 29 -2 30 -30 24 -16 -3 -46 -8 -65 -11 -33 -3 -32 -3
10 12 25 9 77 18 115 21 61 5 73 3 85 -13 14 -17 14 -18 -2 -6 -22 18 -78 11
-92 -11 -25 -39 35 -72 86 -47 22 11 22 10 4 -4 -25 -20 -85 -20 -161 -1 -81
21 -92 13 -20 -14 87 -33 193 -53 238 -46 40 7 40 7 23 60 -4 11 13 -19 38
-67 25 -47 62 -103 83 -123 l37 -36 38 38 c43 42 46 49 19 58 -25 8 -58 42
-100 101 l-33 49 51 -57 51 -56 53 14 c28 7 61 14 72 14 11 0 34 11 50 24 l30
25 -39 -9 c-49 -11 -193 -24 -186 -17 3 2 64 12 135 22 72 9 140 23 152 31 12
8 31 14 43 14 11 0 20 5 20 10 0 6 -9 10 -20 10 -12 0 -31 6 -43 14 -12 8 -78
21 -147 31 -68 9 -127 19 -130 22 -6 7 121 -5 175 -17 l40 -9 -24 20 c-13 10
-35 22 -50 25 -60 14 -115 33 -96 33 11 1 35 -3 54 -9 l34 -9 -23 24 c-37 39
-58 32 -134 -47 -62 -65 -66 -68 -35 -24 34 49 86 100 111 109 9 3 0 18 -28
47 l-41 41 -31 -26z m258 -215 l75 -7 -80 0 c-44 -1 -118 2 -165 6 l-85 8 90
0 c50 0 124 -3 165 -7z m-10 -40 c-36 -4 -103 -7 -150 -7 l-85 1 70 6 c39 4
106 7 150 7 l80 0 -65 -7z"/>
<path d="M3134 2669 c-23 -25 -34 -43 -27 -46 26 -10 65 -47 109 -106 l47 -62
-74 78 c-81 84 -101 92 -139 52 l-23 -24 34 9 c19 6 43 10 54 9 11 0 -10 -9
-48 -19 -57 -15 -117 -43 -117 -53 0 -2 35 2 78 9 78 13 139 18 131 10 -2 -2
-60 -12 -129 -21 -69 -9 -135 -23 -147 -31 -12 -8 -31 -14 -43 -14 -11 0 -20
-4 -20 -10 0 -5 9 -10 20 -10 12 0 31 -7 43 -15 12 -8 47 -17 77 -21 30 -4 91
-13 135 -20 l80 -13 -76 5 c-42 3 -94 9 -115 14 l-39 9 30 -25 c17 -13 39 -24
50 -24 28 0 115 -29 90 -29 -11 -1 -35 3 -54 9 l-34 9 23 -24 c37 -39 58 -32
134 48 62 64 65 67 35 23 -34 -49 -86 -99 -111 -109 -9 -3 0 -18 29 -48 l42
-43 36 38 c20 21 56 77 81 125 25 47 42 77 38 66 -18 -54 -18 -53 28 -60 47
-7 141 11 229 44 29 11 55 19 57 17 2 -2 -34 -19 -80 -37 -71 -29 -95 -33
-170 -34 -81 0 -88 -2 -98 -23 -14 -32 -14 -32 31 -32 67 0 178 32 267 76 45
23 77 35 70 27 -10 -12 -7 -13 18 -8 16 4 50 17 77 29 26 13 47 20 47 17 0
-14 -88 -61 -118 -63 -44 -3 -41 -18 3 -18 35 0 108 30 120 49 3 6 20 20 38
32 l32 23 -20 -24 -20 -23 20 7 c41 17 92 26 143 26 33 0 51 4 47 10 -3 6 -28
10 -54 10 -26 0 -70 7 -97 15 -61 18 -59 18 -43 -2 13 -17 12 -17 -11 0 -91
65 -116 77 -152 77 -50 0 -48 -7 5 -20 48 -13 117 -55 117 -72 0 -6 -7 -5 -18
5 -20 18 -71 41 -116 51 -27 7 -28 6 -16 -9 8 -9 -15 -1 -51 19 -35 19 -94 45
-129 56 -63 21 -200 39 -200 27 0 -3 5 -16 10 -29 10 -21 17 -23 98 -23 76 -1
98 -5 172 -35 109 -45 106 -66 -5 -46 -40 8 -40 8 -40 -24 0 -30 2 -31 30 -27
96 17 102 17 55 1 -72 -24 -171 -29 -195 -9 -20 16 -19 16 3 5 51 -25 111 8
86 47 -6 10 -26 21 -45 24 -31 6 -29 6 15 8 26 0 75 -6 108 -15 79 -20 85 -12
12 16 -93 34 -184 52 -232 45 -46 -7 -46 -7 -27 -60 3 -11 -17 25 -47 79 -30
55 -66 109 -84 122 l-30 24 -40 -41z m-4 -199 c-41 -4 -115 -7 -165 -7 l-90 1
75 6 c41 4 116 6 165 7 l90 0 -75 -7z m570 -20 c0 -5 -6 -10 -14 -10 -8 0 -18
5 -21 10 -3 6 3 10 14 10 12 0 21 -4 21 -10z m-570 -20 l75 -7 -90 0 c-49 0
-121 3 -160 7 l-70 7 85 0 c47 0 119 -3 160 -7z"/>
<path d="M3321 2668 c-23 -26 -29 -38 -18 -38 16 0 61 55 55 68 -2 4 -18 -9
-37 -30z"/>
<path d="M1189 2620 l-26 -48 43 -4 c48 -3 47 -8 20 69 l-11 32 -26 -49z"/>
<path d="M3667 2618 c-9 -29 -15 -52 -14 -53 1 0 20 2 42 5 l40 5 -25 47 -26
48 -17 -52z"/>
<path d="M546 2644 c-9 -8 -16 -21 -16 -29 0 -23 64 -106 98 -127 l32 -20 0
41 c0 54 -21 102 -55 129 -33 26 -39 27 -59 6z"/>
<path d="M4303 2648 c-31 -15 -63 -85 -63 -137 l0 -42 31 18 c38 22 85 80 94
115 4 17 1 31 -10 42 -19 18 -22 19 -52 4z"/>
<path d="M2508 2543 c-21 -24 -41 -64 -35 -70 7 -6 61 22 76 41 15 18 8 46
-12 46 -8 0 -21 -8 -29 -17z"/>
<path d="M1110 2515 c-29 -19 -55 -33 -59 -30 -4 2 -29 -2 -56 -10 -26 -8 -72
-15 -101 -15 -29 0 -56 -4 -59 -10 -4 -6 16 -10 53 -10 32 0 81 -7 108 -15 61
-18 59 -18 43 2 -13 17 -12 17 11 0 95 -67 115 -77 154 -76 l41 1 -44 14 c-49
15 -108 52 -116 72 -2 6 -2 18 0 25 9 21 71 58 109 64 51 8 56 23 8 23 -29 0
-54 -10 -92 -35z m-60 -39 c0 -2 -8 -10 -17 -17 -16 -13 -17 -12 -4 4 13 16
21 21 21 13z"/>
<path d="M285 2526 c-28 -13 -27 -14 27 -9 54 5 59 4 87 -26 23 -25 30 -28 35
-15 9 24 8 31 -10 48 -19 20 -97 21 -139 2z"/>
<path d="M4477 2525 c-19 -18 -20 -25 -11 -50 6 -14 10 -12 30 12 20 26 27 28
84 27 78 -2 56 16 -29 23 -45 4 -61 2 -74 -12z"/>
<path d="M452 2478 c-8 -22 -7 -36 2 -58 12 -29 13 -29 36 -13 13 9 38 22 57
28 l33 12 -58 30 -59 30 -11 -29z"/>
<path d="M4383 2481 c-28 -15 -52 -28 -52 -31 0 -3 24 -17 53 -31 l53 -26 11
29 c8 21 8 36 -1 57 l-12 27 -52 -25z"/>
<path d="M788 2463 c7 -3 16 -2 19 1 4 3 -2 6 -13 5 -11 0 -14 -3 -6 -6z"/>
<path d="M397 2408 c-26 -29 -30 -30 -85 -25 -38 4 -52 3 -40 -4 24 -13 102
-23 132 -15 27 7 42 37 29 60 -6 11 -14 7 -36 -16z"/>
<path d="M791 2436 c3 -4 31 -13 63 -21 135 -35 274 -142 325 -249 12 -27 24
-47 25 -45 2 2 0 30 -4 62 -20 140 -125 224 -305 242 -33 3 -71 8 -85 11 -14
3 -22 3 -19 0z"/>
<path d="M2080 2431 c-82 -26 -180 -92 -288 -195 -45 -43 -85 -76 -88 -73 -4
3 -40 -12 -80 -34 -41 -23 -74 -38 -74 -35 0 3 34 25 75 49 56 33 71 47 63 55
-19 19 -31 15 -94 -29 -57 -39 -58 -40 -24 -7 19 18 46 41 59 50 21 15 22 19
11 33 -12 14 -19 11 -62 -32 -29 -29 -48 -56 -48 -70 0 -13 -5 -23 -10 -23
-14 0 -3 65 19 112 l18 36 -29 4 c-41 6 -76 -42 -99 -135 -10 -40 -18 -62 -18
-50 -2 43 21 123 44 157 13 19 21 37 17 40 -12 13 -60 5 -75 -12 -27 -29 -66
-124 -76 -182 -7 -44 -9 -48 -10 -20 -2 66 32 163 71 207 20 21 20 21 0 32
-36 19 -52 12 -81 -34 -31 -49 -56 -136 -66 -230 -3 -33 -8 -70 -11 -82 -3
-17 7 -30 43 -59 27 -20 47 -40 46 -45 -5 -15 120 -111 181 -140 45 -21 62
-25 68 -16 14 22 8 37 -14 37 -43 0 -95 20 -158 61 -34 22 -60 42 -57 45 2 3
25 -9 50 -26 55 -37 99 -56 153 -64 37 -7 41 -5 52 19 18 39 16 42 -30 47 -59
7 -129 42 -180 90 l-43 40 40 -30 c60 -44 140 -82 189 -88 38 -6 45 -3 60 17
22 32 20 39 -8 39 -39 0 -89 26 -136 70 -29 27 -33 32 -10 14 46 -36 128 -74
161 -74 17 0 32 9 42 24 15 23 15 24 -21 35 -20 6 -55 27 -77 46 -22 20 -30
31 -18 25 12 -5 25 -15 28 -20 3 -6 37 -10 76 -10 62 0 69 2 69 19 0 18 -6 19
-72 16 -75 -4 -71 -1 20 16 44 9 52 14 52 33 l0 23 -82 -24 c-103 -30 -115
-22 -14 10 42 13 74 26 72 28 -6 5 -7 5 179 18 145 10 241 33 304 71 18 12 35
20 36 18 2 -2 -10 -32 -27 -67 -38 -81 -54 -166 -62 -315 -3 -65 -10 -124 -15
-130 -5 -6 -17 -39 -26 -74 -10 -34 -21 -65 -26 -68 -7 -4 26 130 37 148 3 4
-6 8 -20 8 -18 0 -27 -6 -30 -22 -25 -116 -26 -117 -20 -45 4 61 3 67 -15 67
-17 0 -20 -8 -23 -61 -2 -52 1 -67 20 -92 24 -34 27 -41 12 -32 -17 11 -69 91
-75 118 -7 25 -8 26 -31 10 -15 -10 -24 -25 -24 -42 0 -33 39 -116 75 -161
l29 -35 -37 34 c-39 36 -76 105 -79 146 -3 29 -6 30 -37 9 -20 -15 -23 -22
-17 -60 7 -52 53 -148 97 -201 21 -25 16 -22 -14 9 -54 57 -88 123 -95 184 -5
48 -8 50 -47 32 -24 -11 -26 -15 -19 -52 9 -57 28 -101 70 -158 19 -28 33 -52
30 -55 -6 -6 -62 70 -87 119 -11 21 -22 58 -26 83 -6 46 -27 61 -40 28 -13
-34 131 -254 156 -238 5 2 22 -16 40 -40 17 -24 36 -47 41 -50 12 -8 203 22
262 41 26 8 65 28 87 45 41 29 41 29 26 59 l-16 30 -33 -25 c-47 -36 -136 -65
-193 -64 l-48 1 59 9 c60 9 157 48 188 76 18 16 24 58 10 67 -5 3 -30 -6 -58
-19 -27 -14 -75 -27 -109 -30 l-60 -5 67 14 c109 24 157 57 150 106 -4 28 -5
29 -28 14 -25 -17 -136 -36 -128 -22 3 4 15 8 27 8 14 0 42 19 70 48 43 43 46
50 32 62 -14 11 -18 10 -33 -11 -9 -13 -32 -40 -50 -59 -33 -34 -32 -33 7 24
44 64 48 78 28 94 -10 9 -23 -7 -57 -68 -24 -44 -45 -78 -48 -76 -2 3 12 35
32 72 19 37 33 70 31 75 -3 4 34 49 81 101 125 135 186 231 199 314 l6 39 -14
-35 c-31 -80 -63 -121 -164 -208 l-61 -52 -7 86 c-10 114 -2 191 25 243 12 24
18 47 13 52 -5 5 -35 -2 -68 -16 -49 -20 -76 -24 -150 -24 -148 1 -154 15 -10
20 123 4 135 6 195 36 36 18 68 29 73 24 4 -4 -7 -36 -25 -71 -32 -61 -33 -68
-36 -199 l-4 -136 76 74 c79 78 126 154 146 234 7 26 15 47 19 47 3 0 16 -32
29 -71 26 -83 65 -140 156 -227 36 -35 66 -66 66 -69 0 -7 -126 102 -158 137
-13 14 -37 52 -53 85 -25 50 -29 54 -23 25 16 -81 77 -176 193 -303 45 -49 81
-94 81 -101 0 -6 16 -43 36 -80 21 -38 32 -66 26 -62 -6 4 -28 38 -49 76 -29
52 -41 66 -50 58 -20 -16 -16 -31 28 -94 39 -56 39 -57 7 -24 -18 19 -40 46
-49 60 -14 22 -18 23 -33 11 -16 -13 -13 -18 31 -63 26 -26 54 -48 63 -48 8 0
22 -4 29 -9 26 -17 -72 0 -111 18 -36 18 -36 18 -41 -5 -9 -48 29 -78 138
-106 l70 -18 -55 5 c-30 3 -77 17 -104 30 -55 27 -66 25 -66 -10 0 -43 70 -85
185 -110 43 -10 51 -14 29 -14 -48 -1 -159 36 -194 66 -17 14 -32 24 -33 22
-2 -2 -8 -16 -15 -32 -11 -26 -9 -29 30 -57 50 -37 112 -56 243 -76 l100 -15
20 24 c11 12 33 39 48 58 16 18 25 27 22 19 -19 -45 102 106 130 164 36 71 37
86 4 86 -13 0 -19 -7 -19 -22 0 -43 -20 -95 -61 -158 -22 -34 -42 -60 -45 -57
-3 2 13 32 35 66 32 51 61 130 61 170 0 8 -44 31 -59 31 -5 0 -11 -19 -13 -42
-7 -59 -42 -129 -90 -180 l-39 -43 40 56 c41 56 81 152 81 195 0 21 -32 54
-52 54 -5 0 -8 -11 -8 -25 0 -36 -42 -115 -81 -150 l-33 -30 29 35 c36 45 75
128 75 161 0 17 -9 32 -24 42 -23 15 -24 15 -34 -22 -7 -20 -28 -55 -47 -77
-20 -22 -31 -29 -25 -17 5 12 15 25 20 28 6 3 10 37 10 76 0 62 -2 69 -20 69
-18 0 -19 -5 -15 -77 4 -75 4 -76 -5 -23 -17 96 -19 100 -44 100 l-23 0 24
-82 c13 -44 21 -83 19 -86 -3 -2 -14 29 -26 70 -12 40 -26 75 -30 78 -4 3 -12
75 -18 160 -11 161 -32 253 -72 319 -12 18 -20 35 -18 37 2 1 30 -10 63 -27
77 -38 168 -56 328 -64 70 -4 127 -10 127 -14 0 -4 28 -16 63 -26 34 -9 57
-19 51 -21 -6 -3 -38 4 -72 15 l-62 19 0 -23 c0 -20 7 -25 53 -34 91 -19 94
-20 20 -16 -68 5 -73 4 -73 -15 0 -18 7 -20 69 -20 39 0 73 4 76 10 3 5 16 15
28 20 12 6 4 -5 -18 -25 -22 -19 -57 -40 -77 -46 -36 -11 -36 -12 -21 -35 26
-40 91 -27 178 34 34 24 44 28 30 12 -29 -33 -116 -80 -147 -80 -32 0 -34 -7
-12 -38 9 -13 26 -22 40 -22 43 0 134 38 193 80 l56 41 -43 -40 c-53 -49 -119
-82 -178 -89 -48 -5 -50 -8 -32 -47 11 -24 15 -26 52 -20 53 8 131 46 190 91
25 19 51 32 56 29 6 -4 9 -2 8 4 -2 5 12 22 30 38 l33 28 -15 100 c-24 152
-45 214 -88 262 -17 19 -24 20 -47 10 -14 -6 -28 -12 -30 -14 -2 -1 8 -16 23
-33 31 -37 69 -157 63 -197 -4 -27 -4 -27 -6 4 -2 44 -38 141 -68 181 -15 20
-33 32 -48 32 -35 0 -37 -11 -10 -66 13 -27 27 -74 29 -104 l6 -55 -15 63
c-24 104 -51 142 -100 142 l-33 0 19 -37 c11 -21 18 -55 18 -78 -1 -27 -3 -31
-6 -14 -2 14 -26 47 -52 73 -42 42 -49 45 -61 31 -11 -14 -10 -18 11 -33 13
-9 40 -32 59 -50 34 -33 33 -32 -24 7 -63 44 -78 48 -94 28 -8 -9 6 -21 58
-50 38 -21 73 -43 76 -49 4 -7 -23 5 -60 25 -36 20 -73 37 -81 37 -7 0 -52 36
-100 80 -128 119 -230 182 -311 194 -28 4 -32 4 -14 -3 41 -13 103 -49 130
-73 33 -31 144 -158 137 -158 -2 0 -40 36 -83 81 -82 83 -177 141 -254 153
-34 6 -34 6 10 -15 54 -25 58 -28 41 -38 -9 -6 -1 -11 23 -15 37 -7 96 -49 96
-69 0 -6 -7 -2 -15 10 -18 26 -71 47 -168 67 -111 23 -116 21 -46 -28 86 -58
127 -79 174 -87 l40 -6 -38 -2 c-21 0 -56 8 -80 20 -32 17 -39 18 -28 5 17
-20 14 -20 -39 -1 -65 23 -58 12 17 -26 64 -32 73 -34 197 -38 142 -5 132 -18
-14 -20 -69 0 -96 4 -145 24 -33 14 -63 21 -67 17 -4 -4 3 -34 17 -67 20 -49
24 -76 24 -145 -2 -147 -15 -157 -20 -15 -4 108 -9 139 -28 182 -31 69 -57 94
-36 33 19 -53 19 -56 -1 -39 -13 11 -12 4 5 -28 12 -24 20 -59 20 -80 l-2 -38
-6 40 c-4 22 -15 56 -25 75 -21 40 -97 150 -103 150 -3 0 -2 -19 2 -42 14 -91
39 -171 63 -206 l24 -37 -26 25 c-15 13 -33 44 -41 70 -7 25 -14 39 -14 33 -1
-7 -5 -13 -10 -13 -5 0 -11 6 -14 13 -39 96 -45 117 -38 117 4 0 13 -18 20
-40 20 -67 30 -55 28 35 -2 83 -3 85 -19 65 -17 -21 -17 -21 -16 7 1 15 -1 46
-5 68 l-8 40 23 -39 c29 -49 53 -65 70 -48 9 9 10 17 2 30 -14 22 -91 65 -104
57 -10 -6 -26 -99 -21 -125 1 -8 -5 -5 -14 8 -12 17 -23 21 -38 16 -22 -6 -22
-6 1 11 23 17 57 73 49 82 -7 6 -61 -22 -76 -41 -7 -9 -11 -22 -8 -31 4 -8 2
-17 -3 -20 -5 -3 -7 11 -5 30 2 28 0 34 -10 25 -7 -6 -19 -8 -27 -5 -18 7
-157 -21 -210 -42 -21 -8 -45 -25 -53 -36 -8 -12 -15 -17 -15 -11 0 19 48 55
91 69 24 8 38 14 32 14 -26 2 -12 19 28 35 51 21 47 29 -7 15 -76 -21 -139
-62 -223 -145 -47 -46 -86 -82 -88 -81 -1 2 34 42 78 90 75 81 127 119 189
138 20 6 21 7 5 7 -11 0 -31 -3 -45 -7z m175 -96 c-54 -48 -48 -57 17 -24 54
27 66 14 38 -41 -34 -67 -18 -68 35 -2 26 34 50 62 53 62 2 0 1 -39 -3 -87 -4
-49 -4 -85 0 -82 3 4 15 29 25 55 11 27 19 42 20 33 0 -23 -41 -119 -51 -119
-5 0 -9 6 -10 13 0 6 -7 -8 -14 -33 -8 -26 -26 -57 -41 -70 l-26 -25 24 37
c26 37 51 122 64 213 l7 50 -45 -65 c-60 -87 -80 -127 -89 -175 l-6 -40 -2 38
c0 21 8 56 20 80 18 34 19 39 5 28 -16 -13 -17 -12 -10 15 4 16 11 37 16 48 7
13 6 22 -5 33 -12 13 -19 12 -52 -1 -48 -20 -61 -20 -44 0 11 13 4 12 -28 -5
-24 -12 -59 -20 -80 -20 l-38 2 40 6 c43 7 141 58 188 97 50 42 44 25 -8 -21z"/>
<path d="M2300 2305 c-7 -8 -17 -12 -23 -8 -6 4 -7 1 -3 -6 6 -9 13 -8 27 5
10 9 19 19 19 21 0 7 -8 2 -20 -12z"/>
<path d="M4466 2424 c-9 -24 -8 -31 10 -48 19 -19 85 -20 134 -1 34 13 34 13
-22 8 -54 -5 -59 -4 -87 26 -23 25 -30 28 -35 15z"/>
<path d="M529 2410 c-113 -60 -191 -237 -175 -398 14 -136 89 -249 191 -286
16 -6 15 -2 -8 22 -76 79 -51 205 58 291 107 84 143 154 130 250 -9 66 -25 88
-25 35 0 -66 -43 -137 -113 -191 -87 -65 -124 -101 -138 -134 -16 -40 -26 -36
-40 14 -18 68 -7 183 25 252 30 67 52 94 110 136 44 33 38 37 -15 9z"/>
<path d="M618 2405 c-70 -48 -107 -142 -62 -159 47 -18 109 72 102 147 l-3 37
-37 -25z"/>
<path d="M3940 2417 c-151 -34 -227 -115 -244 -257 l-6 -55 36 68 c22 40 59
88 91 117 61 56 179 118 238 126 37 4 35 3 -20 -18 -160 -62 -267 -157 -319
-283 -21 -48 -13 -44 20 13 61 103 170 193 310 255 88 39 103 33 18 -7 -120
-56 -211 -124 -275 -206 -55 -69 -55 -75 -4 -36 25 20 51 36 56 36 16 0 102
42 144 71 57 38 177 174 156 176 -110 11 -154 11 -201 0z"/>
<path d="M4240 2391 c0 -81 58 -163 103 -145 55 21 2 125 -90 178 -10 5 -13
-4 -13 -33z"/>
<path d="M4345 2412 c87 -57 146 -163 153 -276 2 -39 0 -86 -5 -105 -7 -28 -9
-17 -9 55 0 68 -6 102 -23 146 -21 55 -102 158 -124 158 -6 0 -1 -10 11 -23
32 -33 46 -81 33 -106 -41 -76 -132 -22 -151 88 l-8 46 -1 -56 c-2 -80 28
-129 128 -214 72 -62 145 -155 121 -155 -5 0 -12 9 -15 20 -10 33 -51 75 -125
130 -81 60 -116 112 -128 191 l-8 54 -12 -40 c-32 -109 4 -193 120 -283 65
-50 82 -76 97 -144 12 -54 0 -112 -30 -144 -31 -33 -7 -30 45 5 91 63 129 151
129 301 0 86 -4 116 -22 163 -37 94 -119 185 -181 202 -23 6 -23 5 5 -13z"/>
<path d="M722 2375 c14 -33 22 -72 22 -115 1 -94 -29 -148 -123 -224 -82 -66
-110 -114 -111 -184 0 -24 7 -56 15 -72 15 -29 79 -70 110 -70 8 0 15 -1 15
-3 0 -10 -38 -75 -42 -71 -3 2 -1 -19 3 -47 10 -61 40 -98 106 -130 42 -20 50
-21 138 -10 110 14 149 7 221 -42 37 -24 57 -48 82 -97 41 -80 44 -82 36 -39
-3 19 -31 84 -61 145 -33 66 -57 130 -60 157 l-5 46 -29 -28 c-56 -57 -129
-49 -229 25 -35 25 -77 54 -94 65 -17 10 -26 19 -20 19 6 0 47 -23 90 -51 111
-73 147 -84 201 -64 113 43 112 259 -1 378 -59 60 -99 81 -148 74 -71 -10 -99
-50 -128 -188 -11 -49 -24 -97 -30 -107 -10 -15 -11 -15 -5 3 4 11 13 62 21
113 21 140 56 190 137 199 l44 5 -33 56 c-18 30 -40 80 -49 111 -26 94 -46
141 -71 169 l-24 27 22 -50z m267 -464 c24 -15 51 -67 51 -97 0 -31 -34 -87
-64 -105 -37 -23 -87 -24 -178 -5 -43 9 -80 11 -103 6 -41 -9 -46 1 -10 20 14
8 49 48 77 91 29 42 61 82 72 90 49 30 109 30 155 0z"/>
<path d="M826 1867 c-22 -24 -59 -65 -82 -93 l-41 -49 41 -2 c23 0 73 -4 112
-8 82 -9 124 7 149 55 24 47 18 54 -20 22 -36 -33 -54 -37 -175 -47 l-75 -6
45 41 c76 69 130 100 174 100 38 1 40 2 22 15 -11 8 -40 15 -64 15 -39 0 -49
-5 -86 -43z"/>
<path d="M875 1830 c-27 -16 -63 -41 -80 -55 l-30 -25 35 6 c124 21 145 27
174 56 24 24 27 32 15 39 -26 16 -63 9 -114 -21z"/>
<path d="M784 2370 c103 -112 131 -134 225 -178 53 -24 106 -54 119 -65 47
-43 19 5 -40 69 -71 75 -148 131 -252 181 -39 19 -58 31 -41 28 41 -9 161 -70
217 -111 56 -42 132 -124 159 -173 14 -26 18 -29 13 -11 -20 75 -108 174 -208
234 -67 40 -169 76 -207 73 l-27 -2 42 -45z"/>
<path d="M516 2350 c-77 -82 -113 -187 -101 -297 4 -35 10 -63 15 -63 4 0 13
14 20 30 7 17 51 63 98 103 100 84 132 136 131 212 l-1 50 -8 -42 c-21 -103
-99 -150 -149 -89 -17 21 -5 69 26 107 43 51 19 42 -31 -11z"/>
<path d="M2569 2369 c-1 -13 -1 -26 -1 -29 0 -3 -11 -7 -25 -8 -15 -1 -28 -4
-30 -6 -6 -6 87 -116 98 -116 9 0 -4 33 -32 84 -20 34 5 39 60 12 64 -33 66
-19 4 30 -76 60 -73 59 -74 33z"/>
<path d="M792 2336 c11 -14 10 -28 -1 -21 -12 7 29 -115 54 -166 22 -43 62
-87 97 -105 14 -7 65 -18 112 -23 47 -6 99 -17 116 -26 35 -18 37 -12 10 33
-11 17 -17 32 -13 32 4 0 -4 12 -18 26 -13 15 -74 51 -136 80 -92 45 -121 64
-170 116 -32 35 -55 59 -51 54z m90 -124 c14 -12 67 -42 119 -65 124 -57 162
-77 155 -84 -3 -3 -12 -1 -19 5 -7 7 -44 23 -81 37 -133 50 -188 88 -239 165
-29 42 -19 45 12 4 15 -21 39 -49 53 -62z"/>
<path d="M1266 2322 c-18 -34 -46 -181 -45 -231 1 -26 5 -15 14 38 16 87 30
125 62 169 13 17 21 37 18 42 -11 19 -34 10 -49 -18z"/>
<path d="M3585 2340 c-4 -6 0 -19 8 -28 30 -34 57 -103 72 -179 l15 -78 -6 80
c-9 134 -60 252 -89 205z"/>
<path d="M4058 2287 c-45 -51 -74 -72 -142 -105 -47 -23 -89 -42 -94 -42 -12
0 -92 -70 -90 -78 1 -4 -6 -21 -15 -39 -23 -43 -22 -46 14 -28 17 9 68 20 114
25 146 15 191 57 251 232 13 38 19 66 13 63 -13 -9 -11 9 3 23 7 7 10 12 8 12
-3 0 -30 -29 -62 -63z m32 -7 c-39 -72 -120 -130 -239 -171 -30 -11 -66 -26
-79 -35 -13 -9 -26 -14 -28 -11 -7 6 50 38 126 70 104 44 141 69 184 123 42
52 56 62 36 24z"/>
<path d="M1160 2334 c0 0 13 -24 28 -53 l29 -51 12 41 c7 23 14 46 17 53 3 7
-11 11 -41 11 -25 0 -45 0 -45 -1z"/>
<path d="M1810 2325 c-50 -10 -53 -12 -33 -23 32 -18 47 -15 73 13 13 14 22
24 19 24 -2 -1 -29 -7 -59 -14z"/>
<path d="M3650 2330 c0 -3 8 -26 18 -52 l17 -46 26 48 26 48 -44 4 c-23 2 -43
1 -43 -2z"/>
<path d="M2594 2301 c20 -22 26 -25 26 -13 0 4 -10 13 -22 21 -23 14 -23 14
-4 -8z"/>
<path d="M1567 2252 c-8 -9 -21 -31 -27 -47 -6 -17 -8 -25 -3 -20 4 6 24 27
42 48 24 25 30 37 20 37 -9 0 -23 -8 -32 -18z"/>
<path d="M3327 2225 c20 -25 38 -45 40 -45 1 0 -2 12 -8 27 -13 35 -38 63 -56
63 -8 0 1 -18 24 -45z"/>
<path d="M2734 2135 c15 -33 30 -77 33 -98 2 -21 20 -63 39 -93 20 -31 33 -58
31 -61 -3 -3 -17 14 -31 36 -15 23 -28 41 -29 41 -9 0 8 -71 19 -81 8 -7 50
-12 102 -12 l87 0 -69 -10 c-46 -6 -79 -6 -102 1 l-34 10 0 -59 0 -59 53 0
c32 0 85 12 137 30 98 34 108 36 61 11 l-35 -18 55 -56 c38 -37 82 -68 140
-95 97 -47 100 -53 9 -16 -81 33 -141 74 -181 123 -29 37 -33 39 -62 28 l-31
-10 46 -42 c73 -65 236 -143 307 -146 l26 -1 -25 -7 c-24 -7 -24 -7 10 -28 19
-12 55 -26 79 -33 23 -6 41 -13 38 -16 -8 -9 -101 17 -134 37 -36 23 -45 13
-14 -15 27 -25 88 -45 136 -46 27 0 36 -3 26 -9 -11 -7 -4 -14 26 -30 22 -11
55 -32 72 -47 45 -37 50 -23 9 28 -19 24 -40 56 -46 71 -7 15 -17 25 -22 22
-6 -4 -10 8 -10 27 -1 41 -23 103 -46 129 -28 31 -38 22 -15 -14 20 -32 46
-126 37 -134 -2 -2 -11 20 -20 50 -9 30 -25 65 -36 78 -18 23 -19 23 -20 4 -1
-11 -8 5 -16 35 -21 82 -88 212 -137 266 l-44 48 -10 -31 c-10 -29 -9 -32 32
-66 71 -59 163 -233 137 -259 -8 -8 -20 3 -43 41 -18 28 -34 51 -35 51 -5 0
-44 -39 -44 -44 0 -13 106 -67 122 -62 11 2 17 2 14 -1 -3 -3 -1 -15 5 -27 9
-18 8 -19 -3 -6 -7 8 -20 16 -28 18 -27 6 -123 66 -162 103 -21 20 -38 44 -37
55 0 18 1 18 8 -1 23 -56 93 -74 100 -25 2 18 -6 32 -29 52 -25 20 -28 26 -12
22 27 -8 57 -40 103 -116 52 -83 50 -55 -3 50 -29 58 -58 98 -92 129 l-50 44
-17 -33 c-25 -46 -23 -36 11 62 18 52 30 105 30 138 l0 52 -59 0 -60 0 11 -31
c11 -32 3 -158 -11 -172 -4 -4 -5 15 -1 43 8 60 2 130 -11 146 -8 10 -79 25
-79 17 0 -1 18 -15 40 -29 22 -15 38 -29 36 -31 -2 -3 -30 12 -62 32 -34 22
-72 38 -93 39 -20 2 -63 16 -96 32 l-60 29 29 -60z m164 -94 c61 -56 112 -105
112 -108 0 -8 -21 10 -143 121 -54 49 -100 86 -104 83 -3 -3 37 -52 88 -107
52 -56 98 -109 102 -118 10 -21 -121 115 -174 181 -39 49 -44 76 -11 58 9 -5
68 -55 130 -110z m60 7 c64 -51 88 -80 30 -36 -18 13 -59 44 -90 67 -32 24
-58 46 -58 48 0 8 49 -25 118 -79z m-136 -48 c66 -85 93 -124 81 -116 -16 9
-133 162 -133 172 0 9 5 4 52 -56z"/>
<path d="M2167 2176 c-9 -7 -15 -20 -12 -27 5 -13 -185 -236 -217 -255 -7 -4
-4 3 7 17 44 54 181 205 195 216 8 6 12 14 9 18 -4 3 -56 -38 -115 -92 -60
-54 -118 -104 -129 -112 -26 -18 59 65 160 157 44 40 71 69 60 66 -11 -4 -25
-11 -32 -16 -7 -5 -30 -12 -53 -14 -24 -3 -65 -20 -96 -40 -65 -41 -84 -40
-24 1 22 15 40 29 40 30 0 1 -17 -1 -37 -4 -32 -5 -40 -12 -50 -41 -6 -19 -9
-66 -8 -105 l4 -70 -11 80 c-8 56 -8 87 0 107 l10 28 -59 0 -59 0 0 -54 c0
-36 10 -83 30 -136 30 -83 40 -132 14 -72 -8 17 -19 32 -26 32 -25 0 -105 -99
-146 -180 -24 -47 -40 -74 -36 -60 17 66 81 175 130 219 49 45 51 49 40 76
l-12 28 -42 -48 c-54 -62 -118 -191 -136 -275 -9 -42 -15 -54 -15 -35 l-1 30
-20 -25 c-11 -14 -27 -49 -36 -77 -8 -29 -18 -53 -21 -53 -12 0 11 89 33 128
26 44 20 56 -10 23 -24 -27 -45 -88 -46 -133 0 -28 -4 -36 -14 -32 -8 3 -16
-4 -20 -18 -3 -13 -35 -58 -71 -101 l-66 -78 72 60 c39 33 84 66 99 73 15 6
26 17 23 24 -2 7 15 13 50 17 63 6 112 28 128 58 10 20 8 20 -33 -4 -38 -22
-128 -45 -128 -33 0 3 24 12 53 20 28 9 63 25 77 36 23 18 23 20 5 20 -11 1
14 11 55 23 93 28 186 78 247 131 l46 40 -27 12 c-26 10 -31 7 -84 -46 -35
-35 -82 -68 -122 -87 -102 -48 -124 -49 -30 -1 81 40 180 121 180 146 0 6 -12
18 -27 26 -41 22 -26 19 67 -14 52 -18 105 -30 138 -30 l52 0 0 59 0 58 -38
-10 c-25 -7 -60 -7 -107 0 l-70 10 91 -1 c112 -1 128 9 121 70 -2 24 -1 46 4
51 4 4 10 26 12 49 3 23 12 55 21 73 9 17 14 36 11 41 -3 6 -2 10 3 10 6 0 12
7 16 15 7 18 6 18 -17 1z m-112 -54 c-20 -17 -101 -80 -140 -107 -61 -44 -12
4 65 64 36 27 69 50 75 50 6 1 6 -2 0 -7z m11 -157 c-37 -47 -70 -85 -73 -85
-3 0 -1 6 4 13 5 6 36 47 68 90 31 43 60 76 62 73 3 -3 -25 -44 -61 -91z m44
-12 c0 -13 -41 -75 -46 -70 -3 2 5 21 17 41 21 35 29 44 29 29z m-399 -187
c-30 -32 -25 -70 9 -75 18 -2 32 6 52 30 16 18 28 27 28 19 0 -23 -83 -93
-163 -137 l-77 -42 27 47 c62 108 117 182 136 182 6 0 0 -11 -12 -24z"/>
<path d="M1642 1677 c-11 -19 -27 -46 -37 -61 l-18 -27 54 31 c73 43 74 45 50
69 -12 12 -23 21 -25 21 -2 0 -13 -15 -24 -33z"/>
<path d="M2440 2060 c0 -12 -6 -31 -14 -43 -8 -12 -22 -80 -31 -152 -9 -71
-18 -132 -21 -134 -7 -7 -4 45 7 124 6 42 8 79 5 82 -8 8 -32 -49 -46 -112 -8
-33 -15 -52 -17 -43 -3 9 0 33 6 54 l10 37 -24 -23 c-40 -37 -32 -58 52 -139
54 -51 64 -64 33 -41 -64 48 -120 102 -120 117 0 22 -14 15 -54 -26 l-38 -39
29 -31 c15 -18 71 -54 123 -82 52 -28 86 -47 75 -44 -51 18 -52 18 -59 -19 -9
-45 8 -138 39 -225 28 -77 26 -92 -3 -24 -38 90 -54 163 -50 229 4 58 2 63
-20 73 -32 15 -32 16 -32 -32 0 -69 36 -194 80 -275 23 -41 34 -69 25 -62 -8
7 -15 8 -15 2 0 -20 30 -94 50 -123 12 -16 16 -29 10 -29 -15 0 -70 89 -70
114 0 12 -5 28 -10 36 -7 11 -10 4 -10 -25 0 -42 22 -86 73 -145 l28 -33 30
34 c43 50 69 103 69 144 0 37 -15 50 -17 14 -3 -39 -24 -86 -47 -108 l-24 -22
23 48 c13 26 26 61 30 78 l6 29 -22 -19 -23 -20 17 25 c58 85 105 215 114 313
3 37 3 67 0 67 -3 0 -16 -5 -29 -10 -21 -10 -23 -17 -23 -98 -1 -74 -6 -99
-34 -170 -38 -97 -53 -106 -17 -11 33 87 50 180 42 225 -7 37 -8 37 -61 19
-11 -3 23 16 75 44 52 28 108 65 124 82 l28 32 -42 41 c-26 25 -44 36 -47 29
-10 -27 -47 -65 -106 -109 l-62 -47 78 74 c84 81 92 102 52 139 l-24 23 10
-37 c6 -21 9 -45 6 -54 -2 -9 -9 10 -17 43 -14 62 -33 110 -49 119 -5 4 -5 -9
-1 -31 11 -45 24 -190 18 -183 -3 3 -13 64 -23 135 -9 72 -23 140 -31 152 -8
12 -14 31 -14 43 0 11 -4 20 -10 20 -5 0 -10 -9 -10 -20z m-6 -240 c-5 -69
-10 -111 -12 -95 -2 17 0 91 4 165 5 74 10 117 12 95 2 -22 0 -96 -4 -165z
m43 -35 l0 -90 -7 75 c-4 41 -7 116 -7 165 l0 90 7 -75 c4 -41 7 -115 7 -165z
m-57 -305 c-15 -28 -9 -71 13 -84 39 -25 72 35 47 86 -11 22 -11 23 5 3 20
-24 15 -123 -9 -195 -16 -46 -16 -27 -1 50 7 34 6 35 -24 35 -17 0 -31 -4 -31
-8 0 -18 22 -103 31 -119 12 -23 12 -61 0 -53 -6 3 -10 13 -10 23 0 9 -9 48
-20 87 -23 76 -27 145 -11 176 6 10 13 19 16 19 2 0 0 -9 -6 -20z"/>
<path d="M1010 1967 l45 -57 7 29 c5 15 15 34 23 41 25 21 17 26 -42 29 -31 1
-61 5 -67 8 -6 4 10 -19 34 -50z"/>
<path d="M3875 2012 c-75 -4 -80 -7 -56 -38 12 -15 21 -34 21 -43 0 -9 -8 -2
-20 17 -20 32 -47 40 -85 26 -14 -6 -13 -8 5 -21 11 -8 20 -19 20 -25 0 -6 -9
-3 -20 7 -16 15 -22 16 -35 5 -20 -16 -4 -37 33 -43 21 -3 19 -4 -10 -6 -36
-1 -37 -2 -26 -26 14 -31 44 -40 83 -25 28 9 29 9 11 -5 -11 -8 -32 -15 -48
-15 -15 0 -28 -3 -28 -7 1 -5 20 -29 44 -55 l43 -47 6 67 c7 84 24 125 77 185
24 26 41 49 39 50 -2 1 -26 1 -54 -1z"/>
<path d="M1630 1981 c32 -18 78 -20 90 -6 11 13 4 15 -46 15 -37 0 -53 -4 -44
-9z"/>
<path d="M3170 1981 c0 -15 26 -20 65 -11 57 13 54 20 -8 20 -31 0 -57 -4 -57
-9z"/>
<path d="M1092 1967 c-27 -32 -32 -68 -17 -113 8 -25 15 -67 15 -95 l0 -51 45
49 c24 26 44 51 45 56 0 4 -13 7 -28 7 -16 0 -37 7 -48 16 -19 15 -19 16 1 9
50 -18 62 -17 85 12 l22 28 -34 6 c-19 4 -24 7 -12 8 32 2 48 25 29 41 -13 11
-20 9 -42 -11 l-26 -24 12 23 c7 13 19 26 27 29 13 5 13 7 2 14 -20 13 -64 11
-76 -4z"/>
<path d="M1225 1871 c-4 -17 -29 -60 -57 -94 -72 -90 -81 -110 -76 -182 3 -46
14 -81 45 -146 23 -46 39 -70 35 -54 -4 17 -7 66 -7 110 0 73 4 88 45 180 46
102 55 160 33 200 -10 16 -11 15 -18 -14z"/>
<path d="M3651 1867 c-16 -47 -10 -74 46 -205 44 -101 45 -108 40 -181 -2 -42
-7 -85 -11 -96 -3 -11 14 21 39 70 37 75 45 100 45 147 0 73 -7 89 -73 171
-30 38 -59 83 -64 100 l-9 32 -13 -38z"/>
<path d="M3570 1846 c-44 -44 -141 -95 -192 -102 -49 -7 -53 -10 -42 -38 5
-14 10 -13 47 1 50 19 150 89 191 132 35 37 32 42 -4 7z"/>
<path d="M1305 1805 c2 -11 9 -42 16 -68 25 -101 0 -262 -63 -410 -30 -70 -33
-50 -4 27 50 132 68 287 47 391 -7 31 -9 34 -10 13 0 -15 -18 -71 -38 -125
-35 -94 -37 -103 -37 -229 -1 -128 -1 -131 21 -129 27 1 133 130 168 206 34
73 34 155 0 224 -25 52 -84 127 -70 90 53 -144 46 -285 -21 -416 -37 -74 -38
-55 -1 37 29 73 32 87 32 199 0 104 -3 126 -22 165 -13 25 -21 36 -18 25z
m-39 -507 c-18 -26 -22 -17 -5 14 6 11 13 17 16 15 3 -3 -2 -16 -11 -29z"/>
<path d="M3575 1778 c-11 -26 -20 -79 -23 -133 -5 -105 12 -186 58 -280 35
-71 32 -84 -5 -22 -83 143 -97 311 -38 457 8 18 -46 -45 -72 -85 -16 -24 -20
-47 -20 -115 0 -98 19 -144 100 -244 26 -31 45 -59 42 -62 -3 -3 -14 7 -26 22
-12 15 -24 24 -28 21 -3 -4 6 -16 21 -28 15 -12 25 -23 22 -26 -3 -3 -31 16
-63 42 -127 105 -244 131 -348 80 -47 -23 -127 -83 -95 -72 93 34 129 39 214
34 97 -5 158 -24 254 -79 75 -42 59 -45 -24 -3 -103 51 -181 68 -289 63 -54
-3 -107 -12 -133 -23 -24 -9 -42 -19 -40 -20 2 -2 32 3 68 11 83 17 158 17
240 0 69 -15 235 -75 227 -82 -2 -3 -28 5 -58 16 -129 51 -312 74 -414 51 -29
-7 -28 -7 15 -13 25 -4 70 -18 100 -31 86 -38 148 -48 263 -45 90 3 106 6 110
20 3 10 -1 22 -9 29 -16 13 -8 33 9 22 7 -4 21 -8 32 -8 19 -1 20 6 23 112 3
110 2 116 -37 231 -23 65 -41 127 -42 138 -3 53 -17 -40 -18 -116 -1 -90 22
-205 59 -299 11 -30 18 -56 15 -59 -3 -3 -5 1 -5 9 0 12 -2 11 -11 -1 -9 -13
-10 -13 -6 1 3 9 -11 63 -30 120 -43 126 -53 239 -30 339 9 36 14 66 12 68 -1
1 -11 -16 -20 -40z"/>
<path d="M1262 1788 c-1 -10 -21 -66 -44 -125 -35 -92 -41 -119 -40 -178 0
-38 5 -83 11 -100 9 -25 10 -21 5 27 -7 70 8 148 48 246 20 49 28 85 25 110
-2 20 -4 29 -5 20z"/>
<path d="M3629 1796 c-10 -10 9 -94 37 -164 36 -90 48 -167 36 -233 -13 -67
-8 -76 9 -18 24 83 16 164 -28 279 -23 58 -42 113 -44 123 -2 11 -7 16 -10 13z"/>
<path d="M1436 1693 c7 -21 13 -46 14 -56 0 -14 7 -11 33 15 l33 33 -45 22
c-25 13 -47 23 -47 23 -1 0 4 -17 12 -37z"/>
<path d="M1971 1717 c-8 -10 -7 -25 3 -58 l14 -44 1 58 c1 61 0 64 -18 44z"/>
<path d="M2911 1675 l1 -60 14 45 c12 39 12 46 -1 59 -13 14 -15 9 -14 -44z"/>
<path d="M3424 1706 l-40 -21 33 -33 c26 -26 33 -29 33 -15 1 10 7 35 14 56
15 42 16 42 -40 13z"/>
<path d="M2228 1574 c-21 -19 -32 -34 -25 -34 19 0 70 45 66 58 -2 6 -21 -5
-41 -24z"/>
<path d="M2631 1596 c4 -21 52 -60 66 -55 5 2 -9 20 -30 39 -30 26 -38 30 -36
16z"/>
<path d="M1654 1485 l-30 -31 53 -16 c29 -8 53 -15 53 -14 0 0 -10 22 -23 47
l-22 45 -31 -31z"/>
<path d="M3194 1477 c-9 -23 -20 -46 -22 -51 -3 -5 1 -5 8 -1 7 4 31 13 54 19
l42 11 -32 32 -32 31 -18 -41z"/>
<path d="M1520 1421 c-49 -15 -108 -51 -175 -105 -37 -31 -61 -56 -54 -56 11
0 11 -2 -1 -10 -25 -16 -9 -11 65 19 165 67 292 77 450 35 46 -12 -12 16 -65
32 -86 25 -224 15 -324 -24 -44 -17 -82 -30 -84 -27 -2 2 19 15 47 29 131 67
284 74 416 20 38 -15 -53 56 -96 76 -45 20 -131 25 -179 11z m-195 -151 c-3
-5 -11 -10 -16 -10 -6 0 -7 5 -4 10 3 6 11 10 16 10 6 0 7 -4 4 -10z"/>
<path d="M2315 1310 c-14 -22 -108 -61 -182 -74 -54 -10 -67 -14 -41 -15 48
-1 175 23 222 43 26 11 36 21 34 32 -4 21 -24 29 -33 14z"/>
<path d="M2554 1305 c-3 -8 -3 -19 1 -24 11 -18 132 -50 212 -55 l78 -6 -78
15 c-74 14 -168 53 -182 75 -9 15 -25 12 -31 -5z"/>
<path d="M1490 1294 c-36 -7 -99 -26 -140 -41 l-75 -28 75 -8 c106 -12 173 -3
285 38 54 19 107 35 119 36 19 1 19 2 -4 9 -40 13 -189 10 -260 -6z"/>
<path d="M977 1265 c-49 -48 67 -103 161 -77 35 10 30 23 -23 59 -52 36 -112
44 -138 18z"/>
<path d="M3815 1268 c-11 -7 -27 -12 -35 -13 -8 0 -16 -5 -18 -10 -2 -6 -10
-17 -18 -27 -19 -20 -10 -26 48 -34 90 -12 162 29 136 79 -10 20 -81 23 -113
5z"/>
<path d="M1650 1240 c-93 -37 -173 -52 -242 -45 -46 4 -49 4 -23 -6 17 -6 62
-11 100 -11 59 -1 86 5 178 40 59 23 115 42 125 41 11 0 8 -4 -8 -9 -14 -4
-63 -25 -110 -46 -76 -35 -93 -39 -165 -39 -44 0 -93 3 -110 7 -16 4 8 -12 54
-35 65 -31 100 -42 146 -45 73 -5 101 7 186 78 32 27 72 51 90 55 l32 7 -33
15 c-19 7 -59 16 -90 19 -45 4 -68 -1 -130 -26z"/>
<path d="M3057 1256 c-61 -17 -66 -22 -27 -31 17 -4 58 -29 91 -57 82 -68 104
-78 174 -78 51 0 74 7 150 45 50 25 79 42 65 39 -14 -3 -57 -8 -96 -11 -61 -4
-80 -1 -135 22 -35 15 -91 38 -124 51 -33 12 -52 23 -43 23 10 1 65 -17 122
-38 123 -48 182 -56 256 -38 l55 13 -90 1 c-78 0 -103 5 -189 37 -106 39 -135
42 -209 22z"/>
<path d="M2278 1232 l-47 -17 48 -26 49 -26 4 44 c2 23 1 43 -2 42 -3 0 -26
-8 -52 -17z"/>
<path d="M2568 1207 l4 -44 48 26 48 26 -46 17 c-26 10 -49 18 -52 18 -3 0 -4
-20 -2 -43z"/>
<path d="M1855 1188 c-28 -24 -29 -27 -17 -64 10 -35 10 -37 -3 -20 -8 11 -15
32 -15 48 0 15 -3 28 -7 28 -5 -1 -29 -20 -55 -44 l-47 -43 67 -5 c77 -6 142
-33 197 -83 21 -19 38 -35 39 -35 3 0 -5 85 -10 108 l-5 23 -26 -21 c-14 -11
-33 -20 -42 -20 -9 0 -2 8 17 20 24 15 32 27 32 47 0 37 -15 61 -23 39 -3 -8
-16 -20 -29 -27 l-23 -12 24 26 c20 22 22 29 11 42 -16 19 -39 3 -41 -29 -1
-12 -4 -6 -8 13 l-6 34 -30 -25z"/>
<path d="M2173 1174 c118 -64 219 -203 247 -340 7 -30 13 -54 15 -52 7 7 -17
177 -32 223 -35 107 -109 177 -203 190 -25 3 -56 8 -70 11 -14 2 6 -12 43 -32z"/>
<path d="M2691 1194 c-104 -28 -159 -82 -197 -194 -20 -61 -29 -244 -11 -233
7 4 8 -1 3 -13 -6 -15 -3 -14 18 5 15 14 26 21 26 17 0 -5 11 -1 25 8 14 9 30
14 36 11 23 -15 175 50 222 94 44 40 58 75 67 166 5 46 16 97 25 114 18 36 15
37 -28 14 -18 -9 -35 -16 -39 -15 -15 4 -75 -80 -97 -135 -34 -83 -77 -147
-130 -194 -73 -65 -92 -67 -24 -2 69 64 100 111 138 204 14 35 38 76 53 92
l27 30 -25 -13 c-41 -22 -139 -121 -182 -184 -22 -32 -55 -90 -74 -130 -41
-88 -45 -70 -5 24 56 131 149 243 254 304 56 33 60 41 11 20 -127 -53 -224
-165 -286 -329 l-18 -50 5 40 c7 59 69 176 125 238 29 32 77 69 117 90 75 40
62 47 -36 21z m129 -80 c-11 -21 -34 -74 -51 -117 -35 -86 -63 -125 -123 -168
-60 -44 -63 -34 -4 14 47 37 61 58 121 181 37 76 70 137 72 134 3 -3 -4 -22
-15 -44z"/>
<path d="M2960 1195 c-11 -13 -10 -19 5 -35 10 -11 13 -20 7 -20 -6 0 -17 9
-25 20 -13 18 -15 19 -21 5 -14 -38 -6 -65 27 -85 18 -12 25 -20 16 -20 -9 0
-28 9 -43 21 -20 15 -27 17 -30 7 -6 -16 -12 -118 -8 -118 2 0 20 16 40 35 53
50 116 77 194 83 l67 5 -47 43 c-26 24 -50 43 -54 44 -5 0 -8 -13 -8 -28 0
-16 -7 -37 -15 -48 -14 -18 -14 -17 -5 11 15 39 6 69 -25 83 -24 11 -25 10
-26 -21 -1 -22 -3 -25 -6 -10 -6 33 -28 47 -43 28z"/>
<path d="M1240 1195 c0 -2 24 -14 53 -28 71 -33 110 -68 138 -124 19 -41 22
-60 20 -133 -7 -177 -8 -174 22 -218 15 -23 39 -49 53 -58 25 -17 117 -37 109
-25 -2 3 14 14 36 23 33 14 39 14 39 2 0 -30 41 -94 70 -109 16 -8 48 -15 72
-15 69 1 118 29 176 104 63 80 110 112 184 128 51 11 63 9 132 -13 50 -16 71
-20 64 -11 -19 22 -78 48 -163 72 -44 12 -104 37 -132 56 l-53 34 0 -40 c0
-53 -44 -103 -108 -124 -52 -16 -192 -39 -199 -32 -3 2 22 10 54 16 115 24
164 41 196 70 28 24 32 35 32 77 0 56 -33 109 -100 161 -83 64 -208 82 -290
42 -89 -43 -92 -111 -12 -238 31 -49 59 -97 62 -108 6 -18 6 -18 -5 -1 -6 10
-36 52 -66 93 -68 96 -82 141 -59 201 9 23 25 49 36 57 18 12 16 14 -27 19
-28 3 -91 27 -158 60 -95 48 -176 76 -176 62z m629 -169 c73 -38 88 -140 29
-204 -13 -14 -53 -44 -90 -68 -62 -40 -73 -53 -69 -77 1 -5 -3 -6 -9 -2 -5 3
-10 1 -10 -4 0 -6 -4 -11 -9 -11 -6 0 -6 12 -2 28 8 30 5 78 -9 132 -26 94 -2
172 61 203 42 21 72 21 108 3z"/>
<path d="M1778 1009 c-15 -6 -37 -26 -49 -46 -20 -31 -21 -42 -14 -111 5 -43
9 -94 9 -114 l1 -37 30 28 c17 16 50 43 75 60 24 18 52 44 62 59 21 32 24 101
4 127 -12 16 -14 13 -18 -32 -5 -53 -12 -65 -92 -154 l-48 -54 7 80 c9 117 14
133 47 171 32 36 30 39 -14 23z"/>
<path d="M1811 973 c-28 -28 -36 -53 -55 -173 l-6 -35 20 25 c58 71 83 116 88
155 6 55 -10 64 -47 28z"/>
<path d="M1996 1169 c8 -17 19 -65 24 -107 5 -42 14 -90 20 -107 15 -40 56
-82 105 -107 53 -28 177 -69 170 -57 -7 11 7 12 20 1 6 -5 -20 21 -56 57 -63
63 -72 78 -143 232 -10 20 -28 47 -42 60 -20 18 -12 -3 37 -106 69 -148 67
-145 132 -197 51 -40 54 -47 9 -24 -66 35 -121 117 -172 254 -24 65 -64 115
-99 125 -20 5 -20 4 -5 -24z"/>
<path d="M2145 1153 c93 -61 159 -140 220 -267 57 -116 68 -126 36 -35 -56
163 -177 301 -291 334 -14 4 2 -11 35 -32z"/>
<path d="M3672 1147 c-50 -54 -68 -139 -36 -171 20 -21 30 -20 53 3 23 23 35
87 26 141 -8 50 -17 55 -43 27z"/>
<path d="M2110 1152 c0 -5 7 -15 15 -22 8 -7 39 -63 69 -124 50 -103 60 -118
140 -190 l86 -78 -31 69 c-48 108 -87 170 -146 234 -61 66 -133 126 -133 111z"/>
<path d="M1100 1115 c-14 -7 -41 -17 -62 -20 -35 -6 -36 -7 -23 -32 7 -14 27
-33 43 -43 l30 -19 7 37 c4 20 13 49 21 64 8 15 13 28 12 28 -2 -1 -14 -7 -28
-15z"/>
<path d="M923 1051 c-21 -17 -63 -79 -63 -92 0 -4 18 11 40 33 34 35 45 40 75
36 36 -4 45 8 23 30 -17 17 -50 14 -75 -7z"/>
<path d="M3902 1058 c-22 -22 -13 -34 23 -30 32 4 41 -1 75 -37 44 -47 50 -44
19 9 -37 62 -88 87 -117 58z"/>
<path d="M2410 1049 c0 -2 7 -26 15 -53 8 -27 15 -71 15 -97 0 -26 5 -51 10
-54 6 -4 10 14 10 48 0 30 7 76 15 103 19 62 19 61 -5 39 -19 -17 -21 -17 -40
0 -11 10 -20 16 -20 14z"/>
<path d="M1028 985 c6 -36 -14 -78 -49 -99 -35 -21 -33 -34 3 -16 41 21 88 73
88 97 0 12 -9 27 -19 33 -27 14 -29 13 -23 -15z"/>
<path d="M3842 998 c-32 -32 2 -89 76 -127 57 -29 62 -26 16 7 -57 42 -67 57
-62 97 4 36 -8 45 -30 23z"/>
<path d="M2582 720 c-48 -11 -51 -20 -6 -20 79 -1 146 -48 232 -163 23 -32 57
-66 75 -77 17 -11 28 -20 22 -20 -23 0 -74 44 -135 117 -80 94 -130 123 -209
122 l-56 -1 47 -8 c59 -10 103 -40 117 -81 9 -27 8 -33 -15 -56 -30 -29 -60
-26 -111 13 -51 39 -39 11 17 -40 73 -64 143 -90 254 -90 72 0 83 -2 55 -9
-59 -16 -168 -3 -236 28 -61 27 -153 109 -153 136 0 7 -3 10 -6 7 -11 -11 35
-85 77 -122 167 -151 476 -135 590 30 35 51 38 76 7 46 -32 -29 -67 -40 -113
-36 -77 7 -119 30 -173 98 -96 120 -168 153 -280 126z"/>
<path d="M2304 640 c-42 -21 -68 -58 -58 -85 7 -18 36 -27 60 -19 32 12 88 61
107 93 l18 31 -43 0 c-24 0 -61 -9 -84 -20z"/>
<path d="M2476 648 c38 -69 116 -125 154 -113 47 15 24 74 -41 107 -40 21
-124 25 -113 6z"/>
<path d="M2419 516 l-26 -53 28 -10 c21 -8 37 -8 58 0 l28 10 -26 53 c-14 29
-28 53 -31 53 -3 0 -17 -24 -31 -53z"/>
<path d="M2376 424 c-20 -19 -21 -96 -2 -139 12 -29 13 -27 12 33 -1 59 1 66
27 86 24 20 26 24 12 30 -25 9 -32 8 -49 -10z"/>
<path d="M2472 433 c-8 -3 -2 -14 18 -33 32 -30 37 -60 21 -118 -6 -19 -6 -30
-1 -27 13 8 30 74 30 116 0 49 -31 77 -68 62z"/>
<path d="M1754 4113 c3 -10 8 -43 11 -75 8 -61 32 -110 65 -128 16 -9 22 -8
26 5 13 32 -6 88 -51 150 -47 66 -60 79 -51 48z"/>
<path d="M3928 1899 c-29 -16 -21 -25 20 -21 43 3 82 -18 163 -91 l53 -49 -75
7 c-120 10 -138 14 -174 47 -39 34 -41 32 -21 -17 26 -62 87 -77 227 -53 l70
11 -24 26 c-13 14 -39 47 -58 73 -19 25 -46 53 -61 62 -29 18 -94 21 -120 5z"/>
<path d="M3905 1849 c-8 -12 19 -45 50 -62 17 -10 167 -38 172 -33 5 5 -108
87 -132 96 -34 13 -82 13 -90 -1z"/>
<path d="M3046 993 c-9 -10 -7 -58 4 -88 9 -25 91 -137 96 -132 7 7 -27 162
-40 182 -18 27 -50 48 -60 38z"/>
</g>
</svg>
