<?xml version="1.0" standalone="no"?>
<!DOCTYPE svg PUBLIC "-//W3C//DTD SVG 20010904//EN"
 "http://www.w3.org/TR/2001/REC-SVG-20010904/DTD/svg10.dtd">
<svg version="1.0" xmlns="http://www.w3.org/2000/svg"
 width="928.000000pt" height="928.000000pt" viewBox="0 0 928.000000 928.000000"
 preserveAspectRatio="xMidYMid meet">
<metadata>
Created by potrace 1.11, written by Peter Selinger 2001-2013
</metadata>
<g transform="translate(0.000000,928.000000) scale(0.100000,-0.100000)"
fill="#000000" stroke="none">
<path d="M5384 7585 c-16 -15 -52 -38 -80 -51 -44 -20 -228 -90 -252 -95 -54
-12 -243 -94 -310 -134 -55 -33 -74 -41 -78 -30 -8 19 -34 27 -50 15 -13 -11
-20 -8 -99 38 -33 20 -166 73 -230 93 -22 6 -47 14 -55 17 -8 3 -19 7 -25 7
-5 1 -17 5 -25 8 -8 3 -42 13 -75 22 -143 39 -245 83 -245 106 0 6 -10 9 -22
7 -16 -2 -24 -12 -29 -35 -8 -38 -50 -97 -189 -259 -134 -156 -180 -217 -216
-284 -37 -70 -56 -93 -65 -79 -8 14 -49 2 -49 -15 0 -8 -23 -12 -82 -11 -46 0
-88 -3 -95 -8 -7 -5 -16 -6 -20 -4 -7 5 -31 1 -132 -19 -14 -3 -99 -23 -190
-46 -166 -40 -232 -48 -283 -35 -25 7 -28 5 -27 -15 1 -13 4 -34 8 -48 4 -14
2 -61 -5 -105 -7 -44 -15 -93 -18 -110 -2 -16 -5 -30 -6 -30 -2 0 -7 -32 -11
-72 -2 -18 -7 -33 -12 -33 -4 0 -6 -3 -3 -8 2 -4 0 -30 -5 -57 -16 -79 -21
-133 -23 -240 -1 -96 -2 -100 -23 -103 -22 -3 -25 -7 -27 -34 -1 -7 -21 -25
-46 -40 -112 -67 -172 -116 -326 -265 -148 -142 -226 -203 -260 -203 -32 0
-37 -35 -8 -50 14 -8 35 -42 57 -94 33 -77 61 -145 63 -156 0 -3 3 -12 7 -20
3 -8 20 -55 37 -105 37 -106 90 -221 131 -286 33 -52 35 -59 15 -59 -21 0 -27
-25 -11 -47 11 -15 11 -21 0 -33 -34 -39 -124 -244 -140 -316 -11 -55 -89
-304 -106 -340 -11 -22 -29 -51 -40 -63 -22 -24 -19 -50 6 -52 34 -3 64 -18
100 -48 17 -14 51 -42 75 -61 24 -19 58 -48 76 -65 18 -16 51 -46 74 -64 24
-19 48 -40 54 -46 6 -6 27 -22 46 -35 19 -13 37 -27 40 -30 3 -3 23 -17 45
-30 22 -13 43 -29 47 -34 4 -6 8 -7 8 -2 0 5 7 2 16 -5 9 -7 26 -18 38 -24 22
-12 23 -17 10 -48 -5 -13 -1 -20 14 -24 18 -4 20 -13 20 -61 0 -71 15 -227 22
-227 2 0 9 -36 13 -65 2 -14 6 -30 9 -35 3 -6 9 -28 13 -50 5 -22 9 -44 11
-50 4 -17 36 -149 40 -170 11 -45 13 -129 4 -145 -14 -27 12 -45 41 -30 30 17
137 7 279 -26 28 -7 45 -9 110 -19 25 -3 52 -9 60 -12 23 -9 63 -12 195 -17
66 -2 123 -5 128 -5 4 -1 7 -12 7 -26 0 -14 3 -24 8 -24 34 6 50 -5 69 -44 36
-74 119 -178 253 -317 155 -160 226 -251 216 -276 -9 -24 26 -25 48 -1 23 24
89 67 109 71 20 4 61 17 82 26 16 8 168 61 210 75 6 2 21 6 34 10 33 11 187
88 238 120 41 25 42 25 53 6 9 -17 15 -19 37 -10 19 7 30 6 42 -4 39 -33 290
-136 366 -151 6 -1 26 -7 45 -13 19 -6 69 -21 110 -33 41 -12 89 -28 107 -36
17 -8 36 -14 42 -14 6 0 21 -11 33 -25 25 -29 58 -33 58 -7 0 22 51 109 84
144 14 15 26 29 26 32 0 3 10 16 23 29 51 55 146 166 205 242 19 24 82 123 82
128 0 3 10 22 21 42 15 26 25 33 32 26 23 -23 52 -11 49 19 0 3 38 6 86 7 115
1 175 11 377 60 102 25 138 34 165 38 8 1 23 5 32 9 17 8 102 10 148 4 21 -3
25 1 22 22 -10 83 -1 205 18 256 6 14 9 28 9 32 -1 4 0 9 1 12 6 16 28 146 35
205 3 28 9 68 12 90 3 22 5 77 4 122 -1 67 1 82 12 77 21 -8 50 25 37 41 -8
10 -4 14 15 19 14 4 25 11 25 16 0 6 5 10 11 10 13 0 124 74 163 109 16 14 51
47 78 73 28 27 51 48 52 48 1 0 34 30 73 68 120 114 155 142 194 154 50 15 54
30 17 70 -29 31 -55 84 -50 101 1 4 -2 7 -6 7 -4 0 -14 21 -21 48 -8 26 -18
52 -22 58 -5 6 -10 23 -11 38 -1 14 -5 26 -8 26 -3 0 -12 21 -19 48 -20 68
-90 229 -123 283 -15 25 -28 50 -28 54 0 5 -7 16 -16 26 -14 16 -14 18 5 24
22 7 29 41 10 47 -8 3 -3 18 13 43 52 85 132 284 153 381 11 51 70 234 87 272
11 23 28 48 37 55 28 20 18 39 -27 52 -35 11 -100 50 -122 74 -3 4 -39 35 -80
71 -41 35 -82 71 -91 80 -59 55 -198 155 -271 193 -59 32 -64 36 -50 50 13 13
13 19 2 31 -7 9 -18 16 -24 16 -7 0 -10 24 -9 72 1 39 -3 96 -8 127 -5 31 -10
70 -12 86 -3 17 -7 37 -11 46 -4 9 -6 20 -5 25 1 5 0 16 -4 24 -3 8 -22 83
-41 165 -36 148 -45 248 -26 260 6 4 5 12 -4 20 -11 12 -21 12 -45 4 -18 -6
-54 -8 -84 -5 -28 4 -64 8 -79 9 -16 1 -28 5 -28 8 0 3 -11 5 -25 4 -14 -2
-25 1 -25 6 0 6 -4 8 -9 5 -5 -4 -38 0 -73 8 -61 14 -95 21 -168 32 -19 3 -89
7 -155 9 -66 2 -123 4 -128 4 -4 1 -5 13 -3 27 4 22 2 25 -21 22 -17 -2 -29 3
-37 17 -27 49 -111 173 -135 199 -27 29 -132 142 -216 231 -68 72 -129 154
-132 178 -6 36 -19 39 -49 12z"/>
</g>
</svg>
